<svg id="maps" xmlns="http://www.w3.org/2000/svg" viewBox="0 0 3003.93 1715.26">
    <defs>
        <style>
            .cls-1 {
                fill: #afafaf;
            }
            
            .cls-13,
            .cls-14,
            .cls-15,
            .cls-16,
            .cls-2,
            .cls-5,
            .cls-6,
            .cls-7 {
                isolation: isolate;
            }
            
            .cls-2 {
                font-size: 46.24px;
            }
            
            .cls-2,
            .cls-6 {
                fill: #050709;
            }
            
            .cls-13,
            .cls-15,
            .cls-16,
            .cls-2,
            .cls-5,
            .cls-6,
            .cls-7 {
                font-family: Open Sans;
            }
            
            .cls-15,
            .cls-16,
            .cls-2,
            .cls-5,
            .cls-6,
            .cls-7 {
                font-weight: 700;
            }
            
            .cls-3,
            .cls-4 {
                fill: #4c8492;
            }
            
            .cls-4 {
                stroke: #fff;
                stroke-width: 7px;
            }
            
            .cls-4,
            .cls-8 {
                stroke-miterlimit: 10;
            }
            
            .cls-5 {
                font-size: 27.42px;
            }
            
            .cls-5,
            .cls-7 {
                fill: #fffffe;
            }
            
            .cls-6 {
                font-size: 40.16px;
            }
            
            .cls-7 {
                font-size: 31.93px;
            }
            
            .cls-8 {
                fill: #e2e2e2;
                stroke: #201600;
                stroke-linecap: round;
            }
            
            .cls-13,
            .cls-16,
            .cls-9 {
                fill: #fff;
            }
            
            .cls-10 {
                fill: #68bfea;
            }
            
            .cls-11 {
                fill: #639cc5;
            }
            
            .cls-12 {
                fill: #fdfdfe;
            }
            
            .cls-13 {
                font-size: 20.64px;
            }
            
            .cls-15 {
                font-size: 22.51px;
                fill: #010204;
            }
            
            .cls-16 {
                font-size: 121.94px;
            }

            .mapic:hover path {
                fill: #06a8f9;
            }
            
            .mapic:hover text {
                fill: #fff;
            }

        </style>
    </defs>
    <title>maps2</title>
    <g class="mapic" id="zapad">
        <path class="cls-1" d="M272.23,408.07c-34.27,17.35-66.93-.51-61.14,46.28,4.76,38.49,23.75,53-41.53,51.54l-3.23,1.31-35-86.29-5.79.29-48.8,60.14-9.61-7.8c-3,6-15,39.19-16,44.85-2.78,15.78,17.79,17.7,6.48,37.07C49.61,569.22,8.75,581,0,617.4l38.9,40.39-5.08,4.7c61.74,0,88.51-4.51,138,26.29,39.69,24.71,20.62,8.32,56.79,12,20.23,2.07,33.71-23.81,54.87-23.81h27.38c38.06,0,14-20.93,82.14-20.93l41.35,48.62,6.89,1.9,47.14-61.67c35.48,8.08,63.19,5.22,64.11-40.39,41.44,0,49.45,5.17,72-26.44,8.75-12.25.62-21.71-2.17-37.14-2.1-11.59-.28-12.12-0.84-19.5-1.39-18.25-1.82.42-8.23-13.12l-2.51-.58,7-30.1-43.51-56.55-4,3.09c0-66.07-63.08,1.16-80.53-70.85L425,373.58l-2.25-3.8-12.81-29c-45.08-.34-31.6,2.31-63.18,30.74-27.39,24.66-47.45,11.39-73,9.18Z" transform="translate(0)" />
        <text class="cls-2" transform="translate(281.24 523.67)">Западно-</text>
        <text class="cls-2" transform="translate(220.15 579.16)">Казахстанская</text>
    </g>
    <g class="mapic" id="alma">
        <path class="cls-1" d="M2135.39,1224.87c10.53,28,17.63,23.27,45.33,36.8,32.5,15.88,17.91,20.25,28.15,52.38,6,18.74,17,39.07,26.2,55.94,18.88,34.76.47,56.88,21.51,33.24l289.52-23.12-2.15,14.6,94.6,26.31-15.22-52.07,3.71-1.15,16.91-10.31-7.4-6.34,27-32.58,7.93,4.09-16.69-10.34c2.61-33.36-10.7-42.33-31.71-72.71-29.26-42.31-17.5-45.19-13.82-87.63l-41.18,2.85-0.15-1.79c-39.12-34.13,107.25-86.16,128.3-96.06l-0.23,7.52,71,2.18,0.93,1.5,1.43-22.28-2.25,3-32.31-15.46,4.92-10.27c-30.92,0-12.14-13.79-34.39-31.64-12.86-10.31-25.74-14.72-33.37-31-33.13-70.94-3-35.54-75.59-35.54H2570.6c-20.9,0-18.22-37.29-50.46-13.63-26.39,19.36-30,19.13-55.43.08-14.17-10.6-9.39-.46-30.73-1.09-16.6-.5-16.6-7.14-29.56-11.13-14.7-4.52-48.36,6.54-58.84,18.38-13.7,15.48,12.18,55.36-6.82,65.4-5.76,3-62.54,5.15-74.68,5.9-46.41,2.85-98.86-3-132,30.71-36.46,37.14-67.17,46.23-52.94,98.78,5.33,19.68,9.32,43.27,20.09,62.06C2109,1197.46,2128.55,1206.66,2135.39,1224.87Z" transform="translate(0)" />
        <circle class="cls-3" cx="2310.24" cy="1306.85" r="21" />
        <circle class="cls-4" cx="2310.24" cy="1306.85" r="12.45" />
        <rect class="cls-3" x="2326.28" y="1285.85" width="154.67" height="42" rx="12" ry="12" />
        <text class="cls-5" transform="translate(2341.19 1318.04)">АЛМАТЫ</text>
        <text class="cls-6" transform="translate(2174.44 1096.59)">Алматинская</text>
    </g>
    <g class="mapic" id="mangystau">
        <path class="cls-1" d="M604.48,986.58c-31.17,30.74-20.11,13.94-47.76,3.07-19-7.49-24,9.75-62.09,3.21-11.35-2-52.88,5.48-59.92,15.62-26,37.45-9.48,23.53-9.43,55l7.17-4.18,16,27.44L440,1095l-155.62-53.21-1.19,8.5-37.48,36.65-7.22-.94,43.15,55.54c-38.87,16.73-109.24-74.62-109.24-7.2l38.06,20.52,23,129.38,1.28-6.57,38.81,44.54-6.16,5.37c27.16,0,72.59,15.9,60.65,50.58-15.61,45.34-31.66,7.15-31.66,78.24,50.53-12.16,15.28-31.2,114.44-32.29,53.61-.59,53,24.49,93.33,51.61,0,43.17,17.52,91.88,67.26,86.57,12.87-18.07,32.73-246.59,37.45-287.83,2.81-24.53,16.22-116.58,35.25-127.4,19.73-11.22,51.08,8,51.92-28.67,0.54-24-6.22-49.68-8.26-72.61l-4.24,5.37Z" transform="translate(0)" />
        <text class="cls-6" transform="translate(266.05 1230.14)">Мангистауская</text>
    </g>
    <g class="mapic" id="karaganda">
        <path class="cls-1" d="M2241.66,522c-16.07,7.5-8,50.46-63.25,57.53-35.25,4.52-71.41,42.68-78.72,27.35-5.34-11.19,14.4-31.59-6.68-41.64-13.07-6.23-28.23-16.25-42.51-17.15-76-4.8-13.92-33-45.16-54.75l-2-3.16-66.33,41-2.19-3.54c-25.6,35.22-26.48,51-72.9,51.11l-2.54-30.28L1855,544l-59,42.68c-2.89,22.13.48,38.9-33.58,35.77-25.29-2.32-11.87-8.25-53.43-8.25l-4.11-22.69-3.78,4.68-67.71-45.71-2.37,2.06-30.2,43.63-1.81-2.06L1456.69,770l3.29,9.13-96.67,1.71-2.24-5.28-2.33,22.12-2.69-2.38-43.41,59.91-3.54-.19,17.73,39.45-110.42,77.08c39.38,24.45,69.32,40.46,112.47,62.87,28.46,14.78,87.83,56.75,117.45,56.49,12.09-.1,33.92,2.24,42.25.2,14.8-3.63,13.93-9.05,36.62-6.94,29.72,2.77,6.54,21.73,66.11,21.2,58.19-.52,113.08-8,165.89-8.18,46-.16,298.31-9.8,318.43-31.08,28.93-30.6,51.85-69.69,95.88-79.66,28.54-6.46,130.77-10,164-10l-2.09-62.77c-13.76,1.22-25.44,22.54-44.38,13-28.88-14.48-6.81-33.36-1.85-40.44l-3.32-.62,13-69.83,3.58,3.23-37-52.48,6-4.18c61.13-38.92-12.72-12.84,13.06-93.57-43.35-55.42-10.94-66.39,14.52-97.86l-11-38.13Z" transform="translate(0)" />
        <text class="cls-6" transform="translate(1649.3 826.85)">Карагандинская</text>
    </g>
    <g class="mapic" id="astana">
        <path class="cls-1" d="M1632.66,325.36c-12.8,10.92-20.48,18.22-34.4,28.43-29.36,21.55-11.61,15-39.51,8.2-20.94-5.06-8,18.76-38.14,14.37-18.3-2.67-36.56-3.76-54.5-6.58-12.3,16.13-11.93,28.07-30.86,49.68-32.75,37.38-4.94,22.07-4.94,53v38.65h20.94c16.69,0,25.38,15.65,32.21,29h35.43c30.1,46,76.85,48,106.66,5.19l4-6.33,90.93,58.14-3.53,3.6,68.43,13.23,1.4-7.24c12.53-37.54,3.4-28.19,40-55,47.57-34.92,36.11,0,42.66,19.62l6,6.45L1932,525.11l-2.47-1.87,68.84-40.78,1.23-2.43L1982,472.25l-2.1,1.1,25.85-40.69-7.08-.27,0.82-50.06,4.22,0.07V354.93c0-12.48-11.26-21.83-11.27-35.43l-1.6,4.74-79.06-26.58,3.64-9.9-54.75,12c-15.51-17.18-23.45-37.94-46.83-39.93-55.37-4.72-19.51-16.25-61.36,11.42l1.86-2.06-35.68-25.32c0.07-38.35-18.32-15.62-33.24-12.79-14.21,2.69-28.65-8.5-47.6,9.55C1611.22,265.86,1679.41,285.47,1632.66,325.36Z" transform="translate(0)" />
        <rect class="cls-3" x="1670.36" y="375.85" width="154.67" height="42" rx="12" ry="12" />
        <circle class="cls-3" cx="1841.89" cy="396.85" r="21" />
        <circle class="cls-4" cx="1841.89" cy="396.85" r="12.45" />
        <text class="cls-7" transform="translate(1683.01 408.05)">АСТАНА</text>
    </g>
    <g class="mapic" id="jambyl">
        <path class="cls-1" d="M1744.38,1106.93c-58.63,0-31.46,32.44-13.75,71.72,14.29,31.7,29.86,65.06,29.86,100.58v41.87c0,28.34-56.88,85.43,14.5,85.34,2.48,9.23,13.1,22.13,18.1,30.3,11.68,19.06-2.16,17.36,9,35.89,8,13.31,39.83,36.51,55,40.09l-2.64-.93,20.32-57.53-1.47-12.36,194.38,29.47-1.61,10.61c4.06-45.1-12.59-77.88,50.45-96.62,30.87-9.18,58.74,30.74,119.08,30.74V1400c0-25.82-41.88-65.81-41.88-120.77-17.44-8.81-37.13-17.43-54-26.52-17.36-9.34-7.72-11.38-13.89-26.37-3.11-7.57-13.44-14-20-20.23-21.79-20.75-42.51-88-42.53-116.89l-262.56,17.36Z" transform="translate(0)" />
        <text class="cls-6" transform="translate(1817.34 1300.97)">Жамбылская</text>
    </g>
    <g class="mapic" id="kostonay">
        <path class="cls-1" d="M1461.32,195.93c15.31-15.52,31.49-13.54,17.26-24.26-21.32-16,3.73-11.29-3.72-39.65-5.38-20.47-22.8-13.74-38.38-9.36-35.67,10.14-18.05,10.83-25,31.5l-277.61,31.62L1135,177l-5.36,38.32-3-3.19,40.9,12.76-1,5.15-36.62,15.34v3.34l66.28,24.46c6.46,60.66-60.4-11.8-99.47,47.89,46.94,71.75-13.24,52.63-48.26,83.67l22.7,34.88-3.19,3,27.11,1.19,1.94-1.16,5.82,14.43,3.76-4.28,64.25,33.5,3.79-5.58,0.18,14.34h8.76l24.28,37.07c-18.21,27.54,12.24,48.15,23,84.84,9.65,32.78-21.7,54.68-45.74,76.23l16.9,69.45,13.75-9.08,24,15.44-5.37,8.47,81.12,61.36-5,3,50-75.58-2,3.07,97.14,1.78-4.21-10.74,148-179.91-4.22,10.3-118.67-47.25L1479,538l-55.57-23.79-2.84,6.63V519.2l3.56-.58L1412,444.24l-6,1c8.28-23.38,53.27-54.93,53.27-91.9V319.51c0-25.06-4-27.62,17.3-43.82l-3.22-.32,5.52-56.3h6.75Z" transform="translate(0)" />
        <text class="cls-6" transform="translate(1127.08 362.36)">Костанайская</text>
    </g>
    <g class="mapic" id="kyzilorda">
        <path class="cls-1" d="M1004,981.88c-32.29,10.78-17.5-.85-47.71,28-15,14.29-25.61,23.58-38.94,40-27,33.22-33.7,6.45-45.15,33.92-9.26,22.2-11.44,30.18,6.85,46C908,1154.89,1038.6,1249.48,1047.32,1274c7.46,21,42.47,84.56,63.47,94.15,11.05,5,52.36-4.83,66.5-7,43.45-6.62,33.33,3.53,64.83,6.32,13.5,1.2,63.55,7.25,70.88,5.46,19.69-4.78,31-31.81,46.48-12.08,19.26,24.59,17.57,20.42,40.25,39.05,18.64,15.31,19.49,44.66,25.39,50.76l26.56-14.49,4,1.42-4.2,70,2.24,1.19,131.9-85.83-12-27.84c31.28-20.75,39-58.59,10.11-85.78-39.16-36.9-5.15-75.54-25.78-104.67-16.27-23-19.28-16-13.74-43.12,3.13-15.34,10.48-41.35,3.11-53.92-13-22.2-75.69-6.69-109.2-8.59-35.27-2-51.8-28.95-86-44.44-27.65-12.52-57.66-25.37-88.83-41.63-17.61-9.19-67.57-42.74-76.63-53.83-12.33-15.1-3.52-21.08-25.82-40.21-7.37-6.33-30.72-32-31.73-32.69-53.55,0-52,21.3-75.7,69.24l-44,1L1008,958Z" transform="translate(0)" />
        <text class="cls-6" transform="translate(1109.5 1210.26)">Кызылординская</text>
        <polygon class="cls-8" points="825.59 741.53 841.41 714.13 809.77 714.13 825.59 741.53" />
    </g>
    <g class="mapic" id="aktobinsk">
        <path class="cls-1" d="M1003.3,569.27c-37.22-23.08-25.68-11.77-59.11-23-27.9-9.4-23.61-36.39-28.75-51.77l-1.83-8.33-82.48,18.49C820.24,483,799,472.25,777.89,483.49c-4.74,2.53-26.45,13.7-26.6,13.81-6.25,4.37-8.53,12.55-19,19.71-47.64,32.66-51.64-45-88.76-52.08-22.79-4.35,9.42,17.72-4.79,47-17.92,37,3.17,40.54-1.6,59.34-2.67,10.55-27.11,37.81-37.21,40.39-25.86,6.62-45.13-14.66-47.6,31.59l25.25,17.91-1.7.86-11.29,36.17,2.12,3.93,64.35,14L629.78,722c-2.69,26.75-7.74,16.8-6.68,58.19,0.89,34.78,15.47,25.85,2.39,53.2-5,10.36-18.8,40.87-18.58,51.39,0.1,4.75,11.58,52.32,14.16,55.27,30.58,34.89,63.82,6.6,71.24,70.48,2.31,19.92,9.66,113.49,16.39,123.71L857,1105l13.16-44.13-2-.63h31.94l-4.09-4.64L991.11,967l5.07,5.15,4.77-24.5,44.42-.13c22.19-33.54,36.56-91.27,88.83-66.26,24.6,11.77,52.27,67.75,77.07,84l-1.32-2,106.58-72-2.41-3.56c-0.35-7.62-22.36-60.08-30.49-67.29-13.43-11.91-45.59-21.3-60.68-37.62l5.51-18.55-1.6-1.49-11.38,13.92-8.51,4L1171.13,695l2.06-4.65,50.33-47.89,4.85,1.33-46.22-128.67-14.53,4.85-7.24-29.19,2.5-.62h-20.94C1142,547.66,1075.28,567.39,1039,548l-9.3-15.74-2.31,1.22L1005,570.28Z" transform="translate(0)" />
        <text class="cls-6" transform="translate(764.2 797.78)">Актюбинская</text>
    </g>
    <g class="mapic" id="vostokkz">
        <path class="cls-1" d="M2675,428.66c-42.92,4.58-23.8,17.62-47.1,22.15-18.67,3.63-44.15,15-55.64,14.18-23.8-1.78-64.22-78.58-79.55-38.57-8.93,23.32,17.87,5.67-17.37,42.85-18.76,19.79-20.52,6.94-33.92-12.43-13-18.87-44.47-61.86-59.87-77-4.88,8.39-52.15,75.64-52.12,76.12,1.82,29.2,51.48,36.39,44.2,85-8.84,59-59.71,29.16-77.82,43-31.34,23.92-32.39,62.44-.56,83.49-12.64,24.69-24.07,32.91-.15,56.77,26.92,26.86-11.47,35.13-16,46.29l-3.58,3.15,39.41,43.26-4.84-2.78-20.3,85.9-6.75.24,12.09,22.38,2.7,0.45,36-24.5,124-5.13c18.08,12.67,19.8,28.67,41.59,20.4,26.21-10,16-21.14,47-21.14,6.33,7.11,13.64,20.93,25.77,20.93h53.15c14,0,26.72-17.21,39.86,3.51,7.7,12.14,9,29.24,15.46,41,8.2,14.86,18.58,16.72,30.74,25.63,17.49,12.81,10.39,29.66,25.05,29.7l2.5,0.24,18.36-187.55,5,7,133.64-.46,0.9,7.91L2943,803.77l8.94,2.56-32-150.47,6.66-1.42c8.65-2.34,48.19-25.23,55.9-31.2,27.42-21.24-.76-34-2.75-57.36l-1.34-2.16,25.51-15.77-3.84-8.89-37.19-35,4-4.24c-24,5.74-19.47,33.82-40.27,33.82H2891.2c-29.38,0-43.45-5.74-59-31.16-20-32.59-40.81-7-60.33-28.25C2748,448.31,2716.39,374.48,2675,428.66Z" transform="translate(0)" />
        <text class="cls-6" transform="translate(2343.7 706.59)">Восточно-Казахстанская</text>
    </g>
    <g class="mapic" id="pavlodar">
        <path class="cls-1" d="M2144.78,122.15l-121.2,99.94,4-2.88-68.94,13,2.51,5.93,24.16,8.95-0.6,4.25-13.12,16.45,29.89,12.3,1,3.52-10.27,16.81c6.26,18.75,19.11,36,21,56.37,2.84,30.29-12.81,46.62-4.79,62.58,17.23,34.27-13.07,29-8.72,46.9,1.24,5.12,26.06,32.24,33.14,42.26l-14.21,15.06L2028,540l1.71-5.61L2110.55,561l0.28,1.66,0.45,38.62-3.15.3,1.88,1.34c0.65,0.65,19.56-20,29.41-23.76,22.47-8.55,17.81-9.08,39.94-8.93,35.76,0.24,40.66-36.53,53.06-55.87l0.73-3.12L2300.48,527l-0.44,1.88c0.05,46.29,5.44,41.87,48.32,41.87,55-84.12-50.4-77.39-26.21-127.31,20.59-42.51,86.81-36.26,22.1-118.17-25.41-32.16-58.08-80.9-87.73-107.13-36.4-32.2-98.22-48.4-107.88-88.6l27.84,0.06,2.92-21.68Z" transform="translate(0)" />
        <text class="cls-6" transform="translate(2039.88 379.78)">Палодарская</text>
    </g>
    <g class="mapic" id="atyrau">
        <path class="cls-1" d="M618.11,722.49c-22.8-16.62-79.25,13-56.07-49.37,15.1-40.61-51.24-4.91-72.23-17.21l1.34,1.11-49.67,59.85-3.1-2.57c-23.46-7.92-34-39-56.36-47.46-37.54-14.18-33.18,19.82-72.74,19.82H285.12c-14.25,0-22.58,8.84-33.49,16.47-16.19,11.32-23.47,5.11-36.85,6.91-33.48,4.52-28.26-3-61-22.53C127.33,671.66-8.63,647.43,32.24,709.19L46.63,694.6l-1.82,4.06,38.31,18.42,8.77-7,49.59,143-4.61,7L92.87,848l0.54-2c0.27,14.17,27.09,40.63,38.17,40.21,9.48-.36,17.56-7.88,30.78-7.47,15.6,0.48,16.86,5.56,32.21-.68,25.55-10.4,93.53-42.82,119.06-33.48,17.54,6.42,31.1,22.63,46.93,34.09,30.46,22,24.1-11.27,52.71-3.35,47.67,13.2,37.71,75.48,34.49,114v-3.66l135.19-1.81,0.16,11.89,18.23-22.55L682,1039.83l3.55-4.38c-1.13-52.66-.28-48.88-41.85-69.67-53.13-26.57-25.17-30.44-43-68.18-13.84-29.23,19.47-54.33,20.65-79.57,0-.51-5.75-35-6.34-47.42C613.78,745.37,614.85,745.37,618.11,722.49Z" transform="translate(0)" />
        <text class="cls-2" transform="translate(253.62 799.36)">Атырауская</text>
    </g>
    <g class="mapic" id="south">
        <path class="cls-1" d="M1550.77,1166.6c-2.46,24,12.19,23.2,20.17,41.27,17.81,40.34-21.11,63.81,28.86,103.27,32.8,25.9.36,64.24-14.88,87.25l15.07,27.06-1.54-1.16-149.59,98.53,1.21,1.2-2.23,27.32c33.84,8.12,37.51-10.53,45.54,33.56,3.2,17.58,11.28,49.62,12.62,64.68,49.28,0,98.07-17.47,125.63,24.15l-8.6,17.44-1.25,3.79,39.77,20.3,2.3-4.5c0-53.19,34.07-68.94,68.74-103.58,23.24-23.22,39.6-13.88,53.8-31.56,17-21.23,19-38.74,45-27.51l-1.48-1.54,20.49-19.77,1.81,1.61,0.87,0.07-6.73,4.51-81.84-111,5.29-3.89c-39.68-4.23-44.16-24-34.16-57.42,13.07-43.69,13.82-41.25,13.73-91.23-0.06-29.9-38.44-123.74-53.28-156.07-19.35,0-120.34-2.77-130.32,1.76C1556,1119.55,1552.09,1153.66,1550.77,1166.6Z" transform="translate(0)" />
        <text class="cls-6" transform="translate(1589.06 1482.66)">Южно-</text>
        <text class="cls-6" transform="translate(1511.34 1530.85)">Казахстанская</text>
    </g>
    <g class="mapic" id="northkz">
        <path class="cls-1" d="M1478.66,118.6l11.93,31.76L1484,158.7l11.7,8.73,4.68,2.53L1475,197.46,1496.62,220l-17,18,14.55,12.76-3.91-.78L1486,274.66l-6.14-1.38-17.63,87.17,6.29,1.49,64.2,7.07,16.79-23.79c40.7,11.14,23.1,21.93,68.76-18.21,43.38-38.14,10-36.33,4.28-73.6-5.23-34.2,59.2-31.2,67.86-34.73,36.09-14.7,33.67,19.74,63.65,39.59l0.3-10.17,78.6,2.24,29,40.12,59.55-13.25-4,10.88,65,25.29-3.64-5.33,7.12-22.38,5.52,2.94-33.72-19,1.27-2,13.18-20.17-1.65-1.44-15.24,13.81c-6.33-13.74-10.52-35.77-5.8-49,11-30.92,25.95-21.75,34.38-30.27v-5.76l-20.52.05L1961,184l-46.76-23.9-0.8,1.48c-3.45,14.32-1.18,25.77-17.72,25.77h-8.05l4.58-2-17.79-41.72-5,1.21L1832.58,174l-1-5.79-24.8,5.61,0.5,3.77-20.71-29,2.84,1.75L1807,109.83l-7.74.26-24.36-72.65-1.94.65c-40.81-4.4-3,37.82-71.91,4.26-33.31-16.23-44.92-14.69-74.6,9.51-18.22,14.84-9.36,24-24.15,29-16.08,5.41-21.18,1.37-42.21,10.94C1535.76,102.85,1506,113.37,1478.66,118.6Z" transform="translate(0)" />
        <text class="cls-6" transform="translate(1584.52 156.84)">Северо-</text>
        <text class="cls-6" transform="translate(1506.12 205.03)">Казахстанская</text>
    </g>
    <g id="windows" visibility="hidden">
    <set attributeName="visibility" from="hidden" to="visible" begin="karaganda.mouseover" end="karaganda.mouseout" />
            <rect class="cls-9" x="1713.45" y="442.28" width="652.86" height="315.17" rx="48.78" ry="48.78" />
            <rect class="cls-10" x="1726.58" y="457.29" width="626.6" height="283.28" rx="43.15" ry="43.15" />
            <path class="cls-11" d="M1726.58,708.68h626.6v22.51a9.38,9.38,0,0,1-9.38,9.38h-606a9.38,9.38,0,0,1-11.26-9.38V708.68h0Z" transform="translate(0)" />
            <rect class="cls-12" x="2038" y="481.68" width="5.63" height="217.62" />
            <polygon class="cls-9" points="1826.01 785.6 1811 757.46 1841.02 757.46 1826.01 785.6" />
            <text class="cls-13" transform="translate(1904.74 733.11) scale(0.99 1)">По состоянию на 01.09.2015</text>
            <g class="cls-14">
                <text class="cls-15" transform="translate(1818.53 626.12) scale(0.99 1)">ПЕРВИЧНЫХ</text>
                <text class="cls-15" transform="translate(1812.85 652.45) scale(0.99 1)">ПАРТИЙНЫЙ </text>
                <text class="cls-15" transform="translate(1801.74 678.74) scale(0.99 1)">ОРГАНИЗАЦИЙ</text>
            </g>
            <g class="cls-14">
                <text class="cls-15" transform="translate(2071.82 626.12) scale(0.99 1)">ТЕРРИТОРИАЛЬНЫХ </text>
                <text class="cls-15" transform="translate(2121.93 652.45) scale(0.99 1)">ФИЛИАЛОВ</text>
            </g>
            <g id="text">
                <text class="cls-16" transform="translate(1780.96 590.52) scale(0.99 1)">414</text>
                <text class="cls-16" transform="translate(2116.74 590.52) scale(0.99 1)">13</text>
        </g>
        <g visibility="hidden">
            <rect class="cls-9" x="782.33" y="404.86" width="652.86" height="315.17" rx="48.78" ry="48.78" />
            <rect class="cls-10" x="795.46" y="419.87" width="626.6" height="283.28" rx="43.15" ry="43.15" />
            <path class="cls-11" d="M795.46,671.26h626.6v22.51a9.38,9.38,0,0,1-9.38,9.38h-606a9.38,9.38,0,0,1-11.26-9.38V671.26h0Z" transform="translate(0)" />
            <rect class="cls-12" x="1106.88" y="444.26" width="5.63" height="217.62" />
            <polygon class="cls-9" points="894.89 748.17 879.88 720.03 909.9 720.03 894.89 748.17" />
            <text class="cls-13" transform="translate(973.62 695.69) scale(0.99 1)">По состоянию на 01.09.2015</text>
            <g class="cls-14">
                <text class="cls-15" transform="translate(887.41 588.7) scale(0.99 1)">ПЕРВИЧНЫХ</text>
                <text class="cls-15" transform="translate(881.73 615.03) scale(0.99 1)">ПАРТИЙНЫЙ </text>
                <text class="cls-15" transform="translate(870.62 641.32) scale(0.99 1)">ОРГАНИЗАЦИЙ</text>
            </g>
            <g class="cls-14">
                <text class="cls-15" transform="translate(1140.7 588.7) scale(0.99 1)">ТЕРРИТОРИАЛЬНЫХ </text>
                <text class="cls-15" transform="translate(1190.81 615.03) scale(0.99 1)">ФИЛИАЛОВ</text>
            </g>
            <text class="cls-16" transform="translate(849.84 553.1) scale(0.99 1)">414</text>
            <text class="cls-16" transform="translate(1185.62 553.1) scale(0.99 1)">13</text>
            <set attributeName="visibility" from="hidden" to="visible" begin="aktobinsk.mouseover" end="aktobinsk.mouseout" />
        </g>
        <g visibility="hidden">
            <rect class="cls-9" x="268.85" y="136.6" width="652.86" height="315.17" rx="48.78" ry="48.78" />
            <rect class="cls-10" x="281.98" y="151.61" width="626.6" height="283.28" rx="43.15" ry="43.15" />
            <path class="cls-11" d="M282,403h626.6v22.51a9.38,9.38,0,0,1-9.38,9.38h-606A9.38,9.38,0,0,1,282,425.51V403h0Z" transform="translate(0)" />
            <rect class="cls-12" x="593.4" y="176" width="5.63" height="217.62" />
            <polygon class="cls-9" points="381.41 479.92 366.4 451.78 396.42 451.78 381.41 479.92" />
            <text class="cls-13" transform="translate(460.14 427.43) scale(0.99 1)">По состоянию на 01.09.2015</text>
            <g class="cls-14">
                <text class="cls-15" transform="translate(373.93 320.45) scale(0.99 1)">ПЕРВИЧНЫХ</text>
                <text class="cls-15" transform="translate(368.25 346.78) scale(0.99 1)">ПАРТИЙНЫЙ </text>
                <text class="cls-15" transform="translate(357.14 373.06) scale(0.99 1)">ОРГАНИЗАЦИЙ</text>
            </g>
            <g class="cls-14">
                <text class="cls-15" transform="translate(627.22 320.45) scale(0.99 1)">ТЕРРИТОРИАЛЬНЫХ </text>
                <text class="cls-15" transform="translate(677.33 346.78) scale(0.99 1)">ФИЛИАЛОВ</text>
            </g>
            <text class="cls-16" transform="translate(336.36 284.84) scale(0.99 1)">414</text>
            <text class="cls-16" transform="translate(672.14 284.84) scale(0.99 1)">13</text>
            <set attributeName="visibility" from="hidden" to="visible" begin="zapad.mouseover" end="zapad.mouseout" />
        </g>
        <g visibility="hidden">
            <rect class="cls-9" x="266.97" y="417.04" width="652.86" height="315.17" rx="48.78" ry="48.78" />
            <rect class="cls-10" x="280.11" y="432.05" width="626.6" height="283.28" rx="43.15" ry="43.15" />
            <path class="cls-11" d="M280.11,683.44H906.7V706a9.38,9.38,0,0,1-9.38,9.38h-606A9.38,9.38,0,0,1,280.11,706V683.44h0Z" transform="translate(0)" />
            <rect class="cls-12" x="591.53" y="456.44" width="5.63" height="217.62" />
            <polygon class="cls-9" points="379.54 760.36 364.53 732.22 394.54 732.22 379.54 760.36" />
            <text class="cls-13" transform="translate(458.27 707.87) scale(0.99 1)">По состоянию на 01.09.2015</text>
            <g class="cls-14">
                <text class="cls-15" transform="translate(372.06 600.88) scale(0.99 1)">ПЕРВИЧНЫХ</text>
                <text class="cls-15" transform="translate(366.37 627.22) scale(0.99 1)">ПАРТИЙНЫЙ </text>
                <text class="cls-15" transform="translate(355.27 653.5) scale(0.99 1)">ОРГАНИЗАЦИЙ</text>
            </g>
            <g class="cls-14">
                <text class="cls-15" transform="translate(625.35 600.88) scale(0.99 1)">ТЕРРИТОРИАЛЬНЫХ </text>
                <text class="cls-15" transform="translate(675.46 627.22) scale(0.99 1)">ФИЛИАЛОВ</text>
            </g>
            <text class="cls-16" transform="translate(334.48 565.28) scale(0.99 1)">414</text>
            <text class="cls-16" transform="translate(670.26 565.28) scale(0.99 1)">13</text>
            <set attributeName="visibility" from="hidden" to="visible" begin="atyrau.mouseover" end="atyrau.mouseout" />
            <g visibility="hidden">
                <rect class="cls-9" x="302.01" y="842.09" width="652.86" height="315.17" rx="48.78" ry="48.78" />
                <rect class="cls-10" x="315.14" y="857.1" width="626.6" height="283.28" rx="43.15" ry="43.15" />
                <path class="cls-11" d="M315.14,1108.49h626.6V1131a9.38,9.38,0,0,1-9.38,9.38h-606a9.38,9.38,0,0,1-11.26-9.38v-22.51h0Z" transform="translate(0)" />
                <rect class="cls-12" x="626.56" y="881.49" width="5.63" height="217.62" />
                <polygon class="cls-9" points="414.57 1185.4 399.56 1157.27 429.58 1157.27 414.57 1185.4" />
                <text class="cls-13" transform="translate(493.3 1132.92) scale(0.99 1)">По состоянию на 01.09.2015</text>
                <g class="cls-14">
                    <text class="cls-15" transform="translate(407.09 1025.93) scale(0.99 1)">ПЕРВИЧНЫХ</text>
                    <text class="cls-15" transform="translate(401.4 1052.26) scale(0.99 1)">ПАРТИЙНЫЙ </text>
                    <text class="cls-15" transform="translate(390.3 1078.55) scale(0.99 1)">ОРГАНИЗАЦИЙ</text>
                </g>
                <g class="cls-14">
                    <text class="cls-15" transform="translate(660.38 1025.93) scale(0.99 1)">ТЕРРИТОРИАЛЬНЫХ </text>
                    <text class="cls-15" transform="translate(710.49 1052.26) scale(0.99 1)">ФИЛИАЛОВ</text>
                </g>
                <text class="cls-16" transform="translate(369.52 990.33) scale(0.99 1)">414</text>
                <text class="cls-16" transform="translate(705.29 990.33) scale(0.99 1)">13</text>
                <set attributeName="visibility" from="hidden" to="visible" begin="mangystau.mouseover" end="mangystau.mouseout" />
            </g>
            <g visibility="hidden">
                <rect class="cls-9" x="1645.7" y="28.67" width="652.86" height="315.17" rx="48.78" ry="48.78" />
                <rect class="cls-10" x="1658.83" y="43.68" width="626.6" height="283.28" rx="43.15" ry="43.15" />
                <path class="cls-11" d="M1658.83,295.07h626.6v22.51a9.38,9.38,0,0,1-9.38,9.38h-606a9.38,9.38,0,0,1-11.26-9.38V295.07h0Z" transform="translate(0)" />
                <rect class="cls-12" x="1970.26" y="68.07" width="5.63" height="217.62" />
                <polygon class="cls-9" points="1758.26 371.99 1743.26 343.85 1773.27 343.85 1758.26 371.99" />
                <text class="cls-13" transform="translate(1836.99 319.5) scale(0.99 1)">По состоянию на 01.09.2015</text>
                <g class="cls-14">
                    <text class="cls-15" transform="translate(1750.79 212.52) scale(0.99 1)">ПЕРВИЧНЫХ</text>
                    <text class="cls-15" transform="translate(1745.1 238.85) scale(0.99 1)">ПАРТИЙНЫЙ </text>
                    <text class="cls-15" transform="translate(1733.99 265.13) scale(0.99 1)">ОРГАНИЗАЦИЙ</text>
                </g>
                <g class="cls-14">
                    <text class="cls-15" transform="translate(2004.08 212.52) scale(0.99 1)">ТЕРРИТОРИАЛЬНЫХ </text>
                    <text class="cls-15" transform="translate(2054.18 238.85) scale(0.99 1)">ФИЛИАЛОВ</text>
                </g>
                <text class="cls-16" transform="translate(1713.21 176.91) scale(0.99 1)">414</text>
                <text class="cls-16" transform="translate(2048.99 176.91) scale(0.99 1)">13</text>
                <set attributeName="visibility" from="hidden" to="visible" begin="astana.mouseover" end="astana.mouseout" />
            </g>
            <g visibility="hidden">
                <rect class="cls-9" x="2077.18" width="652.86" height="315.17" rx="48.78" ry="48.78" />
                <rect class="cls-10" x="2090.32" y="15.01" width="626.6" height="283.28" rx="43.15" ry="43.15" />
                <path class="cls-11" d="M2090.32,266.4h626.6v22.51a9.38,9.38,0,0,1-9.38,9.38h-606a9.38,9.38,0,0,1-11.26-9.38V266.4h0Z" transform="translate(0)" />
                <rect class="cls-12" x="2401.74" y="39.4" width="5.63" height="217.62" />
                <polygon class="cls-9" points="2189.75 343.31 2174.74 315.18 2204.76 315.18 2189.75 343.31" />
                <text class="cls-13" transform="translate(2268.48 290.83) scale(0.99 1)">По состоянию на 01.09.2015</text>
                <g class="cls-14">
                    <text class="cls-15" transform="translate(2182.27 183.84) scale(0.99 1)">ПЕРВИЧНЫХ</text>
                    <text class="cls-15" transform="translate(2176.58 210.17) scale(0.99 1)">ПАРТИЙНЫЙ </text>
                    <text class="cls-15" transform="translate(2165.48 236.46) scale(0.99 1)">ОРГАНИЗАЦИЙ</text>
                </g>
                <g class="cls-14">
                    <text class="cls-15" transform="translate(2435.56 183.84) scale(0.99 1)">ТЕРРИТОРИАЛЬНЫХ </text>
                    <text class="cls-15" transform="translate(2485.67 210.17) scale(0.99 1)">ФИЛИАЛОВ</text>
                </g>
                <text class="cls-16" transform="translate(2144.7 148.24) scale(0.99 1)">414</text>
                <text class="cls-16" transform="translate(2480.47 148.24) scale(0.99 1)">13</text>
                <set attributeName="visibility" from="hidden" to="visible" begin="pavlodar.mouseover" end="pavlodar.mouseout" />
            </g>
            <g visibility="hidden">
                <rect class="cls-9" x="2335.51" y="334.91" width="652.86" height="315.17" rx="48.78" ry="48.78" />
                <rect class="cls-10" x="2348.64" y="349.92" width="626.6" height="283.28" rx="43.15" ry="43.15" />
                <path class="cls-11" d="M2348.64,601.3h626.6v22.51a9.38,9.38,0,0,1-9.38,9.38h-606a9.38,9.38,0,0,1-11.26-9.38V601.3h0Z" transform="translate(0)" />
                <rect class="cls-12" x="2660.06" y="374.3" width="5.63" height="217.62" />
                <polygon class="cls-9" points="2448.07 678.22 2433.06 650.08 2463.08 650.08 2448.07 678.22" />
                <text class="cls-13" transform="translate(2526.8 625.73) scale(0.99 1)">По состоянию на 01.09.2015</text>
                <g class="cls-14">
                    <text class="cls-15" transform="translate(2440.6 518.75) scale(0.99 1)">ПЕРВИЧНЫХ</text>
                    <text class="cls-15" transform="translate(2434.91 545.08) scale(0.99 1)">ПАРТИЙНЫЙ </text>
                    <text class="cls-15" transform="translate(2423.8 571.37) scale(0.99 1)">ОРГАНИЗАЦИЙ</text>
                </g>
                <g class="cls-14">
                    <text class="cls-15" transform="translate(2693.88 518.75) scale(0.99 1)">ТЕРРИТОРИАЛЬНЫХ </text>
                    <text class="cls-15" transform="translate(2743.99 545.08) scale(0.99 1)">ФИЛИАЛОВ</text>
                </g>
                <text class="cls-16" transform="translate(2403.02 483.14) scale(0.99 1)">414</text>
                <text class="cls-16" transform="translate(2738.8 483.14) scale(0.99 1)">13</text>
                <set attributeName="visibility" from="hidden" to="visible" begin="vostokkz.mouseover" end="vostokkz.mouseout" />
            </g>
            <g visibility="hidden">
                <rect class="cls-9" x="1526.65" y="252.02" width="652.86" height="315.17" rx="48.78" ry="48.78" />
                <rect class="cls-10" x="1539.78" y="267.03" width="626.6" height="283.28" rx="43.15" ry="43.15" />
                <path class="cls-11" d="M1539.78,518.42h626.6v22.51a9.38,9.38,0,0,1-9.38,9.38H1551a9.38,9.38,0,0,1-11.26-9.38V518.42h0Z" transform="translate(0)" />
                <rect class="cls-12" x="1851.2" y="291.42" width="5.63" height="217.62" />
                <polygon class="cls-9" points="1631.33 215.55 1616.32 252.96 1646.34 252.96 1631.33 215.55" />
                <text class="cls-13" transform="translate(1717.94 542.84) scale(0.99 1)">По состоянию на 01.09.2015</text>
                <g class="cls-14">
                    <text class="cls-15" transform="translate(1631.73 435.86) scale(0.99 1)">ПЕРВИЧНЫХ</text>
                    <text class="cls-15" transform="translate(1626.05 462.19) scale(0.99 1)">ПАРТИЙНЫЙ </text>
                    <text class="cls-15" transform="translate(1614.94 488.48) scale(0.99 1)">ОРГАНИЗАЦИЙ</text>
                </g>
                <g class="cls-14">
                    <text class="cls-15" transform="translate(1885.02 435.86) scale(0.99 1)">ТЕРРИТОРИАЛЬНЫХ </text>
                    <text class="cls-15" transform="translate(1935.13 462.19) scale(0.99 1)">ФИЛИАЛОВ</text>
                </g>
                <text class="cls-16" transform="translate(1594.16 400.25) scale(0.99 1)">414</text>
                <text class="cls-16" transform="translate(1929.94 400.25) scale(0.99 1)">13</text>
                <set attributeName="visibility" from="hidden" to="visible" begin="northkz.mouseover" end="northkz.mouseout" />
            </g>
            <rect class="cls-9" x="2282.52" y="935.45" width="652.86" height="315.17" rx="48.78" ry="48.78" />
            <rect class="cls-10" x="2295.65" y="950.46" width="626.6" height="283.28" rx="43.15" ry="43.15" />
            <path class="cls-11" d="M2295.65,1201.85h626.6v22.51a9.38,9.38,0,0,1-9.38,9.38h-606a9.38,9.38,0,0,1-11.26-9.38v-22.51h0Z" transform="translate(0)" />
            <rect class="cls-12" x="2607.08" y="974.85" width="5.63" height="217.62" />
            <polygon class="cls-9" points="2395.09 1278.77 2380.08 1250.63 2410.09 1250.63 2395.09 1278.77" />
            <text class="cls-13" transform="translate(2473.82 1226.28) scale(0.99 1)">По состоянию на 01.09.2015</text>
            <g class="cls-14">
                <text class="cls-15" transform="translate(2387.61 1119.29) scale(0.99 1)">ПЕРВИЧНЫХ</text>
                <text class="cls-15" transform="translate(2381.92 1145.63) scale(0.99 1)">ПАРТИЙНЫЙ </text>
                <text class="cls-15" transform="translate(2370.82 1171.91) scale(0.99 1)">ОРГАНИЗАЦИЙ</text>
            </g>
            <g class="cls-14">
                <text class="cls-15" transform="translate(2640.9 1119.29) scale(0.99 1)">ТЕРРИТОРИАЛЬНЫХ </text>
                <text class="cls-15" transform="translate(2691.01 1145.63) scale(0.99 1)">ФИЛИАЛОВ</text>
            </g>
            <text class="cls-16" transform="translate(2350.03 1083.69) scale(0.99 1)">414</text>
            <text class="cls-16" transform="translate(2685.81 1083.69) scale(0.99 1)">13</text>
            <set attributeName="visibility" from="hidden" to="visible" begin="alma.mouseover" end="alma.mouseout" />
        </g>
        <g visibility="hidden">
            <rect class="cls-9" x="1825.03" y="918.46" width="652.86" height="315.17" rx="48.78" ry="48.78" />
            <rect class="cls-10" x="1838.16" y="933.47" width="626.6" height="283.28" rx="43.15" ry="43.15" />
            <path class="cls-11" d="M1838.16,1184.86h626.6v22.51a9.38,9.38,0,0,1-9.38,9.38h-606a9.38,9.38,0,0,1-11.26-9.38v-22.51h0Z" transform="translate(0)" />
            <rect class="cls-12" x="2149.58" y="957.86" width="5.63" height="217.62" />
            <polygon class="cls-9" points="1937.59 1261.78 1922.58 1233.64 1952.6 1233.64 1937.59 1261.78" />
            <text class="cls-13" transform="translate(2016.32 1209.29) scale(0.99 1)">По состоянию на 01.09.2015</text>
            <g class="cls-14">
                <text class="cls-15" transform="translate(1930.12 1102.3) scale(0.99 1)">ПЕРВИЧНЫХ</text>
                <text class="cls-15" transform="translate(1924.43 1128.64) scale(0.99 1)">ПАРТИЙНЫЙ </text>
                <text class="cls-15" transform="translate(1913.32 1154.92) scale(0.99 1)">ОРГАНИЗАЦИЙ</text>
            </g>
            <g class="cls-14">
                <text class="cls-15" transform="translate(2183.4 1102.3) scale(0.99 1)">ТЕРРИТОРИАЛЬНЫХ </text>
                <text class="cls-15" transform="translate(2233.51 1128.64) scale(0.99 1)">ФИЛИАЛОВ</text>
            </g>
            <text class="cls-16" transform="translate(1892.54 1066.7) scale(0.99 1)">414</text>
            <text class="cls-16" transform="translate(2228.32 1066.7) scale(0.99 1)">13</text>
            <set attributeName="visibility" from="hidden" to="visible" begin="jambyl.mouseover" end="jambyl.mouseout" />
        </g>
        <g visibility="hidden">
            <rect class="cls-9" x="1543.59" y="1097.45" width="652.86" height="315.17" rx="48.78" ry="48.78" />
            <rect class="cls-10" x="1556.72" y="1112.46" width="626.6" height="283.28" rx="43.15" ry="43.15" />
            <path class="cls-11" d="M1556.72,1363.85h626.6v22.51a9.38,9.38,0,0,1-9.38,9.38H1568a9.38,9.38,0,0,1-11.26-9.38v-22.51h0Z" transform="translate(0)" />
            <rect class="cls-12" x="1868.14" y="1136.84" width="5.63" height="217.62" />
            <polygon class="cls-9" points="1656.15 1440.76 1641.14 1412.62 1671.16 1412.62 1656.15 1440.76" />
            <text class="cls-13" transform="translate(1734.88 1388.27) scale(0.99 1)">По состоянию на 01.09.2015</text>
            <g class="cls-14">
                <text class="cls-15" transform="translate(1648.67 1281.29) scale(0.99 1)">ПЕРВИЧНЫХ</text>
                <text class="cls-15" transform="translate(1642.99 1307.62) scale(0.99 1)">ПАРТИЙНЫЙ </text>
                <text class="cls-15" transform="translate(1631.88 1333.91) scale(0.99 1)">ОРГАНИЗАЦИЙ</text>
            </g>
            <g class="cls-14">
                <text class="cls-15" transform="translate(1901.96 1281.29) scale(0.99 1)">ТЕРРИТОРИАЛЬНЫХ </text>
                <text class="cls-15" transform="translate(1952.07 1307.62) scale(0.99 1)">ФИЛИАЛОВ</text>
            </g>
            <text class="cls-16" transform="translate(1611.1 1245.68) scale(0.99 1)">414</text>
            <text class="cls-16" transform="translate(1946.88 1245.68) scale(0.99 1)">13</text>
            <set attributeName="visibility" from="hidden" to="visible" begin="south.mouseover" end="south.mouseout" />
        </g>
        <g visibility="hidden">
            <rect class="cls-9" x="1157.1" y="842.09" width="652.86" height="315.17" rx="48.78" ry="48.78" />
            <rect class="cls-10" x="1170.23" y="857.1" width="626.6" height="283.28" rx="43.15" ry="43.15" />
            <path class="cls-11" d="M1170.23,1108.49h626.6V1131a9.38,9.38,0,0,1-9.38,9.38h-606a9.38,9.38,0,0,1-11.26-9.38v-22.51h0Z" transform="translate(0)" />
            <rect class="cls-12" x="1481.65" y="881.49" width="5.63" height="217.62" />
            <polygon class="cls-9" points="1269.66 1185.4 1254.65 1157.27 1284.67 1157.27 1269.66 1185.4" />
            <text class="cls-13" transform="translate(1348.39 1132.92) scale(0.99 1)">По состоянию на 01.09.2015</text>
            <g class="cls-14">
                <text class="cls-15" transform="translate(1262.18 1025.93) scale(0.99 1)">ПЕРВИЧНЫХ</text>
                <text class="cls-15" transform="translate(1256.5 1052.26) scale(0.99 1)">ПАРТИЙНЫЙ </text>
                <text class="cls-15" transform="translate(1245.39 1078.55) scale(0.99 1)">ОРГАНИЗАЦИЙ</text>
            </g>
            <g class="cls-14">
                <text class="cls-15" transform="translate(1515.47 1025.93) scale(0.99 1)">ТЕРРИТОРИАЛЬНЫХ </text>
                <text class="cls-15" transform="translate(1565.58 1052.26) scale(0.99 1)">ФИЛИАЛОВ</text>
            </g>
            <text class="cls-16" transform="translate(1224.61 990.33) scale(0.99 1)">414</text>
            <text class="cls-16" transform="translate(1560.39 990.33) scale(0.99 1)">13</text>
            <set attributeName="visibility" from="hidden" to="visible" begin="kyzilorda.mouseover" end="kyzilorda.mouseout" />
        </g>
        <g visibility="hidden">
            <rect class="cls-9" x="1155.22" y="404.42" width="652.86" height="315.17" rx="48.78" ry="48.78" />
            <rect class="cls-10" x="1168.35" y="419.42" width="626.6" height="283.28" rx="43.15" ry="43.15" />
            <path class="cls-11" d="M1168.35,670.81H1795v22.51a9.38,9.38,0,0,1-9.38,9.38h-606a9.38,9.38,0,0,1-11.26-9.38V670.81h0Z" transform="translate(0)" />
            <rect class="cls-12" x="1479.78" y="443.81" width="5.63" height="217.62" />
            <polygon class="cls-9" points="1267.79 370.57 1252.78 404.42 1282.79 404.42 1267.79 370.57" />
            <text class="cls-13" transform="translate(1346.51 695.24) scale(0.99 1)">По состоянию на 01.09.2015</text>
            <g class="cls-14">
                <text class="cls-15" transform="translate(1260.31 588.26) scale(0.99 1)">ПЕРВИЧНЫХ</text>
                <text class="cls-15" transform="translate(1254.62 614.59) scale(0.99 1)">ПАРТИЙНЫЙ </text>
                <text class="cls-15" transform="translate(1243.51 640.87) scale(0.99 1)">ОРГАНИЗАЦИЙ</text>
            </g>
            <g class="cls-14">
                <text class="cls-15" transform="translate(1513.6 588.26) scale(0.99 1)">ТЕРРИТОРИАЛЬНЫХ </text>
                <text class="cls-15" transform="translate(1563.71 614.59) scale(0.99 1)">ФИЛИАЛОВ</text>
            </g>
            <text class="cls-16" transform="translate(1222.73 552.65) scale(0.99 1)">414</text>
            <text class="cls-16" transform="translate(1558.51 552.65) scale(0.99 1)">13</text>
            <set attributeName="visibility" from="hidden" to="visible" begin="kostonay.mouseover" end="kostonay.mouseout" />
        </g>
        </g>
</svg>