<?xml version="1.0" encoding="utf-8"?>
<!-- Generator: Adobe Illustrator 19.2.1, SVG Export Plug-In . SVG Version: 6.00 Build 0)  -->
<svg version="1.1" xmlns="http://www.w3.org/2000/svg" xmlns:xlink="http://www.w3.org/1999/xlink" x="0px" y="0px"
	 viewBox="0 0 3003.9 1715.3" style="enable-background:new 0 0 3003.9 1715.3;" xml:space="preserve">
<style type="text/css">
	.st0{fill:#AFAFAF;}
	.st1{fill:#050709;}
	.st2{font-family:'OpenSans-Bold';}
	.st3{font-size:46.24px;}
	.st4{fill:#4C8492;}
	.st5{fill:#4C8492;stroke:#FFFFFF;stroke-width:7;stroke-miterlimit:10;}
	.st6{fill:#FFFFFE;}
	.st7{font-size:27.42px;}
	.st8{font-size:40.16px;}
	.st9{font-size:31.93px;}
	.st10{fill:#E2E2E2;stroke:#201600;stroke-linecap:round;stroke-miterlimit:10;}
	.st11{fill:#FFFFFF;}
	.st12{fill:#68BFEA;}
	.st13{fill:#639CC5;}
	.st14{fill:#FDFDFE;}
	.st15{font-family:'OpenSans';}
	.st16{font-size:20.6364px;}
	.st17{fill:#010204;}
	.st18{font-size:22.5125px;}
	.st19{font-size:121.9426px;}
	.st20{display:none;}
	.st21{display:inline;fill:#FFFFFF;}
	.st22{display:inline;fill:#68BFEA;}
	.st23{display:inline;fill:#639CC5;}
	.st24{display:inline;fill:#FDFDFE;}
	.st25{display:inline;fill:#010204;}
</style>
<g id="maps">
	<g id="zapad">
		<path class="st0" d="M272.2,408.1c-34.3,17.4-66.9-0.5-61.1,46.3c4.8,38.5,23.8,53-41.5,51.5l-3.2,1.3l-35-86.3l-5.8,0.3
			l-48.8,60.1l-9.6-7.8c-3,6-15,39.2-16,44.9c-2.8,15.8,17.8,17.7,6.5,37.1C49.6,569.2,8.8,581,0,617.4l38.9,40.4l-5.1,4.7
			c61.7,0,88.5-4.5,138,26.3c39.7,24.7,20.6,8.3,56.8,12c20.2,2.1,33.7-23.8,54.9-23.8h27.4c38.1,0,14-20.9,82.1-20.9l41.3,48.6
			l6.9,1.9l47.1-61.7c35.5,8.1,63.2,5.2,64.1-40.4c41.4,0,49.5,5.2,72-26.4c8.8-12.3,0.6-21.7-2.2-37.1c-2.1-11.6-0.3-12.1-0.8-19.5
			c-1.4-18.2-1.8,0.4-8.2-13.1l-2.5-0.6l7-30.1l-43.5-56.6l-4,3.1c0-66.1-63.1,1.2-80.5-70.9L425,373.6l-2.3-3.8l-12.8-29
			c-45.1-0.3-31.6,2.3-63.2,30.7c-27.4,24.7-47.5,11.4-73,9.2L272.2,408.1z"/>
		<g>
			<text transform="matrix(1 0 0 1 281.24 523.6677)" class="st1 st2 st3">Западно-</text>
			<text transform="matrix(1 0 0 1 220.15 579.1577)" class="st1 st2 st3">Казахстанская</text>
		</g>
	</g>
	<g id="almaty">
		<path class="st0" d="M2135.4,1224.9c10.5,28,17.6,23.3,45.3,36.8c32.5,15.9,17.9,20.3,28.1,52.4c6,18.7,17,39.1,26.2,55.9
			c18.9,34.8,0.5,56.9,21.5,33.2l289.5-23.1l-2.1,14.6l94.6,26.3l-15.2-52.1l3.7-1.2l16.9-10.3l-7.4-6.3l27-32.6l7.9,4.1l-16.7-10.3
			c2.6-33.4-10.7-42.3-31.7-72.7c-29.3-42.3-17.5-45.2-13.8-87.6l-41.2,2.8l-0.1-1.8c-39.1-34.1,107.3-86.2,128.3-96.1l-0.2,7.5
			l71,2.2l0.9,1.5l1.4-22.3l-2.3,3l-32.3-15.5l4.9-10.3c-30.9,0-12.1-13.8-34.4-31.6c-12.9-10.3-25.7-14.7-33.4-31
			c-33.1-70.9-3-35.5-75.6-35.5h-25.8c-20.9,0-18.2-37.3-50.5-13.6c-26.4,19.4-30,19.1-55.4,0.1c-14.2-10.6-9.4-0.5-30.7-1.1
			c-16.6-0.5-16.6-7.1-29.6-11.1c-14.7-4.5-48.4,6.5-58.8,18.4c-13.7,15.5,12.2,55.4-6.8,65.4c-5.8,3-62.5,5.2-74.7,5.9
			c-46.4,2.8-98.9-3-132,30.7c-36.5,37.1-67.2,46.2-52.9,98.8c5.3,19.7,9.3,43.3,20.1,62.1C2109,1197.5,2128.6,1206.7,2135.4,1224.9
			z"/>
		<circle class="st4" cx="2310.2" cy="1306.8" r="21"/>
		<circle class="st5" cx="2310.2" cy="1306.8" r="12.4"/>
		<path class="st4" d="M2338.3,1285.8h130.7c6.6,0,12,5.4,12,12v18c0,6.6-5.4,12-12,12h-130.7c-6.6,0-12-5.4-12-12v-18
			C2326.3,1291.2,2331.7,1285.8,2338.3,1285.8z"/>
		<text transform="matrix(1 0 0 1 2341.1899 1318.0377)" class="st6 st2 st7">АЛМАТЫ</text>
		<text transform="matrix(1 0 0 1 2174.4399 1096.5878)" class="st1 st2 st8">Алматинская</text>
	</g>
	<g id="mangystau">
		<path class="st0" d="M604.5,986.6c-31.2,30.7-20.1,13.9-47.8,3.1c-19-7.5-24,9.8-62.1,3.2c-11.4-2-52.9,5.5-59.9,15.6
			c-26,37.5-9.5,23.5-9.4,55l7.2-4.2l16,27.4l-8.5,8.2l-155.6-53.2l-1.2,8.5l-37.5,36.7l-7.2-0.9l43.1,55.5
			c-38.9,16.7-109.2-74.6-109.2-7.2l38.1,20.5l23,129.4l1.3-6.6l38.8,44.5l-6.2,5.4c27.2,0,72.6,15.9,60.6,50.6
			c-15.6,45.3-31.7,7.2-31.7,78.2c50.5-12.2,15.3-31.2,114.4-32.3c53.6-0.6,53,24.5,93.3,51.6c0,43.2,17.5,91.9,67.3,86.6
			c12.9-18.1,32.7-246.6,37.5-287.8c2.8-24.5,16.2-116.6,35.3-127.4c19.7-11.2,51.1,8,51.9-28.7c0.5-24-6.2-49.7-8.3-72.6l-4.2,5.4
			L604.5,986.6z"/>
		<text transform="matrix(1 0 0 1 266.05 1230.1377)" class="st1 st2 st8">Мангистауская</text>
	</g>
	<g id="karaganda">
		<path class="st0" d="M2241.7,522c-16.1,7.5-8,50.5-63.3,57.5c-35.3,4.5-71.4,42.7-78.7,27.3c-5.3-11.2,14.4-31.6-6.7-41.6
			c-13.1-6.2-28.2-16.3-42.5-17.2c-76-4.8-13.9-33-45.2-54.7l-2-3.2l-66.3,41l-2.2-3.5c-25.6,35.2-26.5,51-72.9,51.1l-2.5-30.3
			l-4.4-4.5l-59,42.7c-2.9,22.1,0.5,38.9-33.6,35.8c-25.3-2.3-11.9-8.3-53.4-8.3l-4.1-22.7l-3.8,4.7l-67.7-45.7l-2.4,2.1l-30.2,43.6
			l-1.8-2.1L1456.7,770l3.3,9.1l-96.7,1.7l-2.2-5.3l-2.3,22.1l-2.7-2.4l-43.4,59.9l-3.5-0.2l17.7,39.5l-110.4,77.1
			c39.4,24.5,69.3,40.5,112.5,62.9c28.5,14.8,87.8,56.8,117.4,56.5c12.1-0.1,33.9,2.2,42.3,0.2c14.8-3.6,13.9-9.1,36.6-6.9
			c29.7,2.8,6.5,21.7,66.1,21.2c58.2-0.5,113.1-8,165.9-8.2c46-0.2,298.3-9.8,318.4-31.1c28.9-30.6,51.9-69.7,95.9-79.7
			c28.5-6.5,130.8-10,164-10l-2.1-62.8c-13.8,1.2-25.4,22.5-44.4,13c-28.9-14.5-6.8-33.4-1.9-40.4l-3.3-0.6l13-69.8l3.6,3.2
			l-37-52.5l6-4.2c61.1-38.9-12.7-12.8,13.1-93.6c-43.4-55.4-10.9-66.4,14.5-97.9l-11-38.1L2241.7,522z"/>
		<text transform="matrix(1 0 0 1 1649.3 826.8477)" class="st1 st2 st8">Карагандинская</text>
	</g>
	<g id="astana">
		<path class="st0" d="M1632.7,325.4c-12.8,10.9-20.5,18.2-34.4,28.4c-29.4,21.5-11.6,15-39.5,8.2c-20.9-5.1-8,18.8-38.1,14.4
			c-18.3-2.7-36.6-3.8-54.5-6.6c-12.3,16.1-11.9,28.1-30.9,49.7c-32.8,37.4-4.9,22.1-4.9,53v38.6h20.9c16.7,0,25.4,15.6,32.2,29
			h35.4c30.1,46,76.8,48,106.7,5.2l4-6.3l90.9,58.1l-3.5,3.6l68.4,13.2l1.4-7.2c12.5-37.5,3.4-28.2,40-55
			c47.6-34.9,36.1,0,42.7,19.6l6,6.5l56.5-52.7l-2.5-1.9l68.8-40.8l1.2-2.4l-17.6-7.8l-2.1,1.1l25.8-40.7l-7.1-0.3l0.8-50.1l4.2,0.1
			v-27.5c0-12.5-11.3-21.8-11.3-35.4l-1.6,4.7l-79.1-26.6l3.6-9.9l-54.8,12c-15.5-17.2-23.4-37.9-46.8-39.9
			c-55.4-4.7-19.5-16.3-61.4,11.4l1.9-2.1l-35.7-25.3c0.1-38.4-18.3-15.6-33.2-12.8c-14.2,2.7-28.7-8.5-47.6,9.6
			C1611.2,265.9,1679.4,285.5,1632.7,325.4z"/>
		<path class="st4" d="M1682.4,375.8H1813c6.6,0,12,5.4,12,12v18c0,6.6-5.4,12-12,12h-130.7c-6.6,0-12-5.4-12-12v-18
			C1670.4,381.2,1675.7,375.8,1682.4,375.8z"/>
		<circle class="st4" cx="1841.9" cy="396.8" r="21"/>
		<circle class="st5" cx="1841.9" cy="396.8" r="12.4"/>
		<text transform="matrix(1 0 0 1 1683.01 408.0477)" class="st6 st2 st9">АСТАНА</text>
	</g>
	<g id="jambyl">
		<path class="st0" d="M1744.4,1106.9c-58.6,0-31.5,32.4-13.8,71.7c14.3,31.7,29.9,65.1,29.9,100.6v41.9c0,28.3-56.9,85.4,14.5,85.3
			c2.5,9.2,13.1,22.1,18.1,30.3c11.7,19.1-2.2,17.4,9,35.9c8,13.3,39.8,36.5,55,40.1l-2.6-0.9l20.3-57.5l-1.5-12.4l194.4,29.5
			l-1.6,10.6c4.1-45.1-12.6-77.9,50.4-96.6c30.9-9.2,58.7,30.7,119.1,30.7V1400c0-25.8-41.9-65.8-41.9-120.8
			c-17.4-8.8-37.1-17.4-54-26.5c-17.4-9.3-7.7-11.4-13.9-26.4c-3.1-7.6-13.4-14-20-20.2c-21.8-20.8-42.5-88-42.5-116.9l-262.6,17.4
			L1744.4,1106.9z"/>
		<text transform="matrix(1 0 0 1 1817.34 1300.9678)" class="st1 st2 st8">Жамбылская</text>
	</g>
	<g id="kostonay">
		<path class="st0" d="M1461.3,195.9c15.3-15.5,31.5-13.5,17.3-24.3c-21.3-16,3.7-11.3-3.7-39.6c-5.4-20.5-22.8-13.7-38.4-9.4
			c-35.7,10.1-18.1,10.8-25,31.5l-277.6,31.6l1.1-8.8l-5.4,38.3l-3-3.2l40.9,12.8l-1,5.1l-36.6,15.3v3.3l66.3,24.5
			c6.5,60.7-60.4-11.8-99.5,47.9c46.9,71.8-13.2,52.6-48.3,83.7l22.7,34.9l-3.2,3l27.1,1.2l1.9-1.2l5.8,14.4l3.8-4.3l64.3,33.5
			l3.8-5.6l0.2,14.3h8.8l24.3,37.1c-18.2,27.5,12.2,48.1,23,84.8c9.7,32.8-21.7,54.7-45.7,76.2l16.9,69.5l13.8-9.1l24,15.4l-5.4,8.5
			l81.1,61.4l-5,3l50-75.6l-2,3.1l97.1,1.8l-4.2-10.7l148-179.9l-4.2,10.3l-118.7-47.3l2.5-5.5l-55.6-23.8l-2.8,6.6v-1.6l3.6-0.6
			l-12.2-74.4l-6,1c8.3-23.4,53.3-54.9,53.3-91.9v-33.8c0-25.1-4-27.6,17.3-43.8l-3.2-0.3l5.5-56.3h6.8L1461.3,195.9z"/>
		<text transform="matrix(1 0 0 1 1127.08 362.3577)" class="st1 st2 st8">Костанайская</text>
	</g>
	<g id="kyzilorda">
		<path class="st0" d="M1004,981.9c-32.3,10.8-17.5-0.8-47.7,28c-15,14.3-25.6,23.6-38.9,40c-27,33.2-33.7,6.4-45.2,33.9
			c-9.3,22.2-11.4,30.2,6.8,46c28.9,25.1,159.5,119.7,168.2,144.2c7.5,21,42.5,84.6,63.5,94.2c11.1,5,52.4-4.8,66.5-7
			c43.4-6.6,33.3,3.5,64.8,6.3c13.5,1.2,63.6,7.3,70.9,5.5c19.7-4.8,31-31.8,46.5-12.1c19.3,24.6,17.6,20.4,40.3,39.1
			c18.6,15.3,19.5,44.7,25.4,50.8l26.6-14.5l4,1.4l-4.2,70l2.2,1.2l131.9-85.8l-12-27.8c31.3-20.8,39-58.6,10.1-85.8
			c-39.2-36.9-5.2-75.5-25.8-104.7c-16.3-23-19.3-16-13.7-43.1c3.1-15.3,10.5-41.3,3.1-53.9c-13-22.2-75.7-6.7-109.2-8.6
			c-35.3-2-51.8-28.9-86-44.4c-27.7-12.5-57.7-25.4-88.8-41.6c-17.6-9.2-67.6-42.7-76.6-53.8c-12.3-15.1-3.5-21.1-25.8-40.2
			c-7.4-6.3-30.7-32-31.7-32.7c-53.6,0-52,21.3-75.7,69.2l-44,1l-1.4,1.5L1004,981.9z"/>
		<text transform="matrix(1 0 0 1 1109.5 1210.2577)" class="st1 st2 st8">Кызылординская</text>
		<polygon class="st10" points="825.6,741.5 841.4,714.1 809.8,714.1 		"/>
	</g>
	<g id="aktobinsk">
		<path class="st0" d="M1003.3,569.3c-37.2-23.1-25.7-11.8-59.1-23c-27.9-9.4-23.6-36.4-28.8-51.8l-1.8-8.3l-82.5,18.5
			c-10.9-21.7-32.2-32.4-53.2-21.2c-4.7,2.5-26.5,13.7-26.6,13.8c-6.3,4.4-8.5,12.5-19,19.7c-47.6,32.7-51.6-45-88.8-52.1
			c-22.8-4.4,9.4,17.7-4.8,47c-17.9,37,3.2,40.5-1.6,59.3c-2.7,10.5-27.1,37.8-37.2,40.4c-25.9,6.6-45.1-14.7-47.6,31.6l25.3,17.9
			l-1.7,0.9l-11.3,36.2l2.1,3.9l64.3,14l-1.3,5.9c-2.7,26.8-7.7,16.8-6.7,58.2c0.9,34.8,15.5,25.8,2.4,53.2
			c-5,10.4-18.8,40.9-18.6,51.4c0.1,4.8,11.6,52.3,14.2,55.3c30.6,34.9,63.8,6.6,71.2,70.5c2.3,19.9,9.7,113.5,16.4,123.7L857,1105
			l13.2-44.1l-2-0.6h31.9l-4.1-4.6l95.1-88.6l5.1,5.2l4.8-24.5l44.4-0.1c22.2-33.5,36.6-91.3,88.8-66.3c24.6,11.8,52.3,67.8,77.1,84
			l-1.3-2l106.6-72l-2.4-3.6c-0.3-7.6-22.4-60.1-30.5-67.3c-13.4-11.9-45.6-21.3-60.7-37.6l5.5-18.5l-1.6-1.5l-11.4,13.9l-8.5,4
			l-35.8-85.7l2.1-4.7l50.3-47.9l4.8,1.3l-46.2-128.7l-14.5,4.9l-7.2-29.2l2.5-0.6h-20.9c0.1,57.5-66.7,77.3-102.9,57.8l-9.3-15.7
			l-2.3,1.2l-22.4,36.8L1003.3,569.3z"/>
		<text transform="matrix(1 0 0 1 764.2 797.7776)" class="st1 st2 st8">Актюбинская</text>
	</g>
	<g id="vostok-kz">
		<path class="st0" d="M2675,428.7c-42.9,4.6-23.8,17.6-47.1,22.1c-18.7,3.6-44.1,15-55.6,14.2c-23.8-1.8-64.2-78.6-79.6-38.6
			c-8.9,23.3,17.9,5.7-17.4,42.9c-18.8,19.8-20.5,6.9-33.9-12.4c-13-18.9-44.5-61.9-59.9-77c-4.9,8.4-52.1,75.6-52.1,76.1
			c1.8,29.2,51.5,36.4,44.2,85c-8.8,59-59.7,29.2-77.8,43c-31.3,23.9-32.4,62.4-0.6,83.5c-12.6,24.7-24.1,32.9-0.1,56.8
			c26.9,26.9-11.5,35.1-16,46.3l-3.6,3.2l39.4,43.3l-4.8-2.8l-20.3,85.9l-6.8,0.2l12.1,22.4l2.7,0.5l36-24.5l124-5.1
			c18.1,12.7,19.8,28.7,41.6,20.4c26.2-10,16-21.1,47-21.1c6.3,7.1,13.6,20.9,25.8,20.9h53.1c14,0,26.7-17.2,39.9,3.5
			c7.7,12.1,9,29.2,15.5,41c8.2,14.9,18.6,16.7,30.7,25.6c17.5,12.8,10.4,29.7,25.1,29.7l2.5,0.2l18.4-187.5l5,7l133.6-0.5l0.9,7.9
			l46.2-36.9l8.9,2.6l-32-150.5l6.7-1.4c8.6-2.3,48.2-25.2,55.9-31.2c27.4-21.2-0.8-34-2.8-57.4l-1.3-2.2l25.5-15.8l-3.8-8.9
			l-37.2-35l4-4.2c-24,5.7-19.5,33.8-40.3,33.8h-35.4c-29.4,0-43.4-5.7-59-31.2c-20-32.6-40.8-7-60.3-28.3
			C2748,448.3,2716.4,374.5,2675,428.7z"/>
		<text transform="matrix(1 0 0 1 2343.7 706.5876)" class="st1 st2 st8">Восточно-Казахстанская</text>
	</g>
	<g id="pavlodar">
		<path class="st0" d="M2144.8,122.1l-121.2,99.9l4-2.9l-68.9,13l2.5,5.9l24.2,8.9l-0.6,4.3l-13.1,16.5l29.9,12.3l1,3.5l-10.3,16.8
			c6.3,18.8,19.1,36,21,56.4c2.8,30.3-12.8,46.6-4.8,62.6c17.2,34.3-13.1,29-8.7,46.9c1.2,5.1,26.1,32.2,33.1,42.3l-14.2,15.1
			l9.4,16.4l1.7-5.6l80.8,26.6l0.3,1.7l0.4,38.6l-3.1,0.3l1.9,1.3c0.6,0.7,19.6-20,29.4-23.8c22.5-8.5,17.8-9.1,39.9-8.9
			c35.8,0.2,40.7-36.5,53.1-55.9l0.7-3.1l67.3,15.7l-0.4,1.9c0.1,46.3,5.4,41.9,48.3,41.9c55-84.1-50.4-77.4-26.2-127.3
			c20.6-42.5,86.8-36.3,22.1-118.2c-25.4-32.2-58.1-80.9-87.7-107.1c-36.4-32.2-98.2-48.4-107.9-88.6l27.8,0.1l2.9-21.7
			L2144.8,122.1z"/>
		<text transform="matrix(1 0 0 1 2039.88 379.7777)" class="st1 st2 st8">Палодарская</text>
	</g>
	<g id="atyrau">
		<path class="st0" d="M618.1,722.5c-22.8-16.6-79.3,13-56.1-49.4c15.1-40.6-51.2-4.9-72.2-17.2l1.3,1.1l-49.7,59.8l-3.1-2.6
			c-23.5-7.9-34-39-56.4-47.5c-37.5-14.2-33.2,19.8-72.7,19.8h-24.2c-14.3,0-22.6,8.8-33.5,16.5c-16.2,11.3-23.5,5.1-36.8,6.9
			c-33.5,4.5-28.3-3-61-22.5c-26.4-15.8-162.4-40.1-121.5,21.7l14.4-14.6l-1.8,4.1l38.3,18.4l8.8-7l49.6,143l-4.6,7l-44-12.1l0.5-2
			c0.3,14.2,27.1,40.6,38.2,40.2c9.5-0.4,17.6-7.9,30.8-7.5c15.6,0.5,16.9,5.6,32.2-0.7c25.6-10.4,93.5-42.8,119.1-33.5
			c17.5,6.4,31.1,22.6,46.9,34.1c30.5,22,24.1-11.3,52.7-3.3c47.7,13.2,37.7,75.5,34.5,114v-3.7l135.2-1.8l0.2,11.9l18.2-22.5
			l80.7,66.6l3.5-4.4c-1.1-52.7-0.3-48.9-41.8-69.7c-53.1-26.6-25.2-30.4-43-68.2c-13.8-29.2,19.5-54.3,20.7-79.6
			c0-0.5-5.8-35-6.3-47.4C613.8,745.4,614.8,745.4,618.1,722.5z"/>
		<text transform="matrix(1 0 0 1 253.62 799.3577)" class="st1 st2 st3">Атырауская</text>
	</g>
	<g id="south-kz">
		<path class="st0" d="M1550.8,1166.6c-2.5,24,12.2,23.2,20.2,41.3c17.8,40.3-21.1,63.8,28.9,103.3c32.8,25.9,0.4,64.2-14.9,87.3
			l15.1,27.1l-1.5-1.2l-149.6,98.5l1.2,1.2l-2.2,27.3c33.8,8.1,37.5-10.5,45.5,33.6c3.2,17.6,11.3,49.6,12.6,64.7
			c49.3,0,98.1-17.5,125.6,24.2l-8.6,17.4l-1.3,3.8l39.8,20.3l2.3-4.5c0-53.2,34.1-68.9,68.7-103.6c23.2-23.2,39.6-13.9,53.8-31.6
			c17-21.2,19-38.7,45-27.5l-1.5-1.5l20.5-19.8l1.8,1.6l0.9,0.1l-6.7,4.5l-81.8-111l5.3-3.9c-39.7-4.2-44.2-24-34.2-57.4
			c13.1-43.7,13.8-41.3,13.7-91.2c-0.1-29.9-38.4-123.7-53.3-156.1c-19.3,0-120.3-2.8-130.3,1.8
			C1556,1119.5,1552.1,1153.7,1550.8,1166.6z"/>
		<g>
			<text transform="matrix(1 0 0 1 1589.0601 1482.6577)" class="st1 st2 st8">Южно-</text>
			<text transform="matrix(1 0 0 1 1511.34 1530.8477)" class="st1 st2 st8">Казахстанская</text>
		</g>
	</g>
	<g id="north-kz">
		<path class="st0" d="M1478.7,118.6l11.9,31.8l-6.6,8.3l11.7,8.7l4.7,2.5l-25.3,27.5l21.6,22.5l-17,18l14.6,12.8l-3.9-0.8
			l-4.3,24.7l-6.1-1.4l-17.6,87.2l6.3,1.5l64.2,7.1l16.8-23.8c40.7,11.1,23.1,21.9,68.8-18.2c43.4-38.1,10-36.3,4.3-73.6
			c-5.2-34.2,59.2-31.2,67.9-34.7c36.1-14.7,33.7,19.7,63.7,39.6l0.3-10.2l78.6,2.2l29,40.1l59.6-13.3l-4,10.9l65,25.3l-3.6-5.3
			l7.1-22.4l5.5,2.9l-33.7-19l1.3-2l13.2-20.2l-1.7-1.4l-15.2,13.8c-6.3-13.7-10.5-35.8-5.8-49c11-30.9,25.9-21.8,34.4-30.3v-5.8
			l-20.5,0.1l-2.4,9.1l-46.8-23.9l-0.8,1.5c-3.4,14.3-1.2,25.8-17.7,25.8h-8.1l4.6-2l-17.8-41.7l-5,1.2l-36.9,29.2l-1-5.8l-24.8,5.6
			l0.5,3.8l-20.7-29l2.8,1.8l17.6-40.6l-7.7,0.3l-24.4-72.7l-1.9,0.7c-40.8-4.4-3,37.8-71.9,4.3c-33.3-16.2-44.9-14.7-74.6,9.5
			c-18.2,14.8-9.4,24-24.2,29c-16.1,5.4-21.2,1.4-42.2,10.9C1535.8,102.8,1506,113.4,1478.7,118.6z"/>
		<g>
			<text transform="matrix(1 0 0 1 1584.52 156.8377)" class="st1 st2 st8">Северо-</text>
			<text transform="matrix(1 0 0 1 1506.12 205.0277)" class="st1 st2 st8">Казахстанская</text>
		</g>
	</g>
</g>
<g id="kar">
	<g id="windows">
		<g id="other">
			<path class="st11" d="M1762.2,442.3h555.3c26.9,0,48.8,21.8,48.8,48.8v217.6c0,26.9-21.8,48.8-48.8,48.8h-555.3
				c-26.9,0-48.8-21.8-48.8-48.8V491.1C1713.4,464.1,1735.3,442.3,1762.2,442.3z"/>
			<path class="st12" d="M1769.7,457.3H2310c23.8,0,43.1,19.3,43.1,43.1v197c0,23.8-19.3,43.1-43.1,43.1h-540.3
				c-23.8,0-43.1-19.3-43.1-43.1v-197C1726.6,476.6,1745.9,457.3,1769.7,457.3z"/>
			<path class="st13" d="M1726.6,708.7h626.6l0,0v22.5c0,5.2-4.2,9.4-9.4,9.4h-606c-5.1,1-10-2.2-11.1-7.3c-0.1-0.7-0.2-1.4-0.2-2.1
				V708.7L1726.6,708.7z"/>
			<rect x="2038" y="481.7" class="st14" width="5.6" height="217.6"/>
			<polygon class="st11" points="1826,785.6 1811,757.5 1841,757.5 			"/>
			<text transform="matrix(0.99 0 0 1 1904.7416 733.1055)" class="st11 st15 st16">По состоянию на 01.09.2015</text>
			<text transform="matrix(0.99 0 0 1 1818.5345 626.1212)" class="st17 st2 st18">ПЕРВИЧНЫХ</text>
			<text transform="matrix(0.99 0 0 1 1812.847 652.4532)" class="st17 st2 st18">ПАРТИЙНЫЙ </text>
			<text transform="matrix(0.99 0 0 1 1801.7416 678.7383)" class="st17 st2 st18">ОРГАНИЗАЦИЙ</text>
			<text transform="matrix(0.99 0 0 1 2071.8235 626.1212)" class="st17 st2 st18">ТЕРРИТОРИАЛЬНЫХ </text>
			<text transform="matrix(0.99 0 0 1 2121.9329 652.4532)" class="st17 st2 st18">ФИЛИАЛОВ</text>
		</g>
		<g id="text">
			<text transform="matrix(0.99 0 0 1 1780.9603 590.5157)" class="st11 st2 st19">414</text>
			<text transform="matrix(0.99 0 0 1 2116.7375 590.5157)" class="st11 st2 st19">13</text>
		</g>
	</g>
</g>
<g id="akt" class="st20">
	<path class="st21" d="M831.1,404.9h555.3c26.9,0,48.8,21.8,48.8,48.8v217.6c0,26.9-21.8,48.8-48.8,48.8H831.1
		c-26.9,0-48.8-21.8-48.8-48.8V453.6C782.3,426.7,804.2,404.9,831.1,404.9z"/>
	<path class="st22" d="M838.6,419.9h540.3c23.8,0,43.1,19.3,43.1,43.1v197c0,23.8-19.3,43.1-43.1,43.1H838.6
		c-23.8,0-43.1-19.3-43.1-43.1V463C795.5,439.2,814.8,419.9,838.6,419.9z"/>
	<path class="st23" d="M795.5,671.3h626.6l0,0v22.5c0,5.2-4.2,9.4-9.4,9.4h-606c-5.1,1-10-2.2-11.1-7.3c-0.1-0.7-0.2-1.4-0.2-2.1
		V671.3L795.5,671.3z"/>
	<rect x="1106.9" y="444.3" class="st24" width="5.6" height="217.6"/>
	<polygon class="st21" points="894.9,748.2 879.9,720 909.9,720 	"/>
	<text transform="matrix(0.99 0 0 1 973.6215 695.6855)" class="st21 st15 st16">По состоянию на 01.09.2015</text>
	<text transform="matrix(0.99 0 0 1 887.4145 588.7011)" class="st25 st2 st18">ПЕРВИЧНЫХ</text>
	<text transform="matrix(0.99 0 0 1 881.727 615.0331)" class="st25 st2 st18">ПАРТИЙНЫЙ </text>
	<text transform="matrix(0.99 0 0 1 870.6215 641.3183)" class="st25 st2 st18">ОРГАНИЗАЦИЙ</text>
	<text transform="matrix(0.99 0 0 1 1140.7035 588.7011)" class="st25 st2 st18">ТЕРРИТОРИАЛЬНЫХ </text>
	<text transform="matrix(0.99 0 0 1 1190.8129 615.0331)" class="st25 st2 st18">ФИЛИАЛОВ</text>
	<text transform="matrix(0.99 0 0 1 849.8403 553.0956)" class="st21 st2 st19">414</text>
	<text transform="matrix(0.99 0 0 1 1185.6176 553.0956)" class="st21 st2 st19">13</text>
</g>
<g id="zap" class="st20">
	<path class="st21" d="M317.6,136.6h555.3c26.9,0,48.8,21.8,48.8,48.8V403c0,26.9-21.8,48.8-48.8,48.8H317.6
		c-26.9,0-48.8-21.8-48.8-48.8V185.4C268.8,158.4,290.7,136.6,317.6,136.6z"/>
	<path class="st22" d="M325.1,151.6h540.3c23.8,0,43.1,19.3,43.1,43.1v197c0,23.8-19.3,43.1-43.1,43.1H325.1
		c-23.8,0-43.1-19.3-43.1-43.1v-197C282,170.9,301.3,151.6,325.1,151.6z"/>
	<path class="st23" d="M282,403h626.6l0,0v22.5c0,5.2-4.2,9.4-9.4,9.4h-606c-5.1,1-10-2.2-11.1-7.3c-0.1-0.7-0.2-1.4-0.2-2.1V403
		L282,403z"/>
	<rect x="593.4" y="176" class="st24" width="5.6" height="217.6"/>
	<polygon class="st21" points="381.4,479.9 366.4,451.8 396.4,451.8 	"/>
	<text transform="matrix(0.99 0 0 1 460.1416 427.4301)" class="st21 st15 st16">По состоянию на 01.09.2015</text>
	<text transform="matrix(0.99 0 0 1 373.9345 320.4458)" class="st25 st2 st18">ПЕРВИЧНЫХ</text>
	<text transform="matrix(0.99 0 0 1 368.247 346.7778)" class="st25 st2 st18">ПАРТИЙНЫЙ </text>
	<text transform="matrix(0.99 0 0 1 357.1416 373.063)" class="st25 st2 st18">ОРГАНИЗАЦИЙ</text>
	<text transform="matrix(0.99 0 0 1 627.2236 320.4458)" class="st25 st2 st18">ТЕРРИТОРИАЛЬНЫХ </text>
	<text transform="matrix(0.99 0 0 1 677.333 346.7778)" class="st25 st2 st18">ФИЛИАЛОВ</text>
	<text transform="matrix(0.99 0 0 1 336.3603 284.8403)" class="st21 st2 st19">414</text>
	<text transform="matrix(0.99 0 0 1 672.1377 284.8403)" class="st21 st2 st19">13</text>
</g>
<g id="atrau" class="st20">
	<path class="st21" d="M315.8,417h555.3c26.9,0,48.8,21.8,48.8,48.8v217.6c0,26.9-21.8,48.8-48.8,48.8H315.8
		c-26.9,0-48.8-21.8-48.8-48.8V465.8C267,438.9,288.8,417,315.8,417z"/>
	<path class="st22" d="M323.3,432.1h540.3c23.8,0,43.1,19.3,43.1,43.1v197c0,23.8-19.3,43.1-43.1,43.1H323.3
		c-23.8,0-43.1-19.3-43.1-43.1v-197C280.1,451.4,299.4,432.1,323.3,432.1z"/>
	<path class="st23" d="M280.1,683.4h626.6l0,0V706c0,5.2-4.2,9.4-9.4,9.4h-606c-5.1,1-10-2.2-11.1-7.3c-0.1-0.7-0.2-1.4-0.2-2.1
		V683.4L280.1,683.4z"/>
	<rect x="591.5" y="456.4" class="st24" width="5.6" height="217.6"/>
	<polygon class="st21" points="379.5,760.4 364.5,732.2 394.5,732.2 	"/>
	<text transform="matrix(0.99 0 0 1 458.2655 707.869)" class="st21 st15 st16">По состоянию на 01.09.2015</text>
	<text transform="matrix(0.99 0 0 1 372.0584 600.8846)" class="st25 st2 st18">ПЕРВИЧНЫХ</text>
	<text transform="matrix(0.99 0 0 1 366.3709 627.2166)" class="st25 st2 st18">ПАРТИЙНЫЙ </text>
	<text transform="matrix(0.99 0 0 1 355.2655 653.5018)" class="st25 st2 st18">ОРГАНИЗАЦИЙ</text>
	<text transform="matrix(0.99 0 0 1 625.3475 600.8846)" class="st25 st2 st18">ТЕРРИТОРИАЛЬНЫХ </text>
	<text transform="matrix(0.99 0 0 1 675.4569 627.2166)" class="st25 st2 st18">ФИЛИАЛОВ</text>
	<text transform="matrix(0.99 0 0 1 334.4842 565.2791)" class="st21 st2 st19">414</text>
	<text transform="matrix(0.99 0 0 1 670.2616 565.2791)" class="st21 st2 st19">13</text>
</g>
<g id="man" class="st20">
	<path class="st21" d="M350.8,842.1h555.3c26.9,0,48.8,21.8,48.8,48.8v217.6c0,26.9-21.8,48.8-48.8,48.8H350.8
		c-26.9,0-48.8-21.8-48.8-48.8V890.9C302,863.9,323.8,842.1,350.8,842.1z"/>
	<path class="st22" d="M358.3,857.1h540.3c23.8,0,43.1,19.3,43.1,43.1v197c0,23.8-19.3,43.1-43.1,43.1H358.3
		c-23.8,0-43.1-19.3-43.1-43.1v-197C315.1,876.4,334.5,857.1,358.3,857.1z"/>
	<path class="st23" d="M315.1,1108.5h626.6l0,0v22.5c0,5.2-4.2,9.4-9.4,9.4h-606c-5.1,1-10-2.2-11.1-7.3c-0.1-0.7-0.2-1.4-0.2-2.1
		V1108.5L315.1,1108.5z"/>
	<rect x="626.6" y="881.5" class="st24" width="5.6" height="217.6"/>
	<polygon class="st21" points="414.6,1185.4 399.6,1157.3 429.6,1157.3 	"/>
	<text transform="matrix(0.99 0 0 1 493.2979 1132.9155)" class="st21 st15 st16">По состоянию на 01.09.2015</text>
	<text transform="matrix(0.99 0 0 1 407.0909 1025.9312)" class="st25 st2 st18">ПЕРВИЧНЫХ</text>
	<text transform="matrix(0.99 0 0 1 401.4034 1052.2632)" class="st25 st2 st18">ПАРТИЙНЫЙ </text>
	<text transform="matrix(0.99 0 0 1 390.2979 1078.5483)" class="st25 st2 st18">ОРГАНИЗАЦИЙ</text>
	<text transform="matrix(0.99 0 0 1 660.38 1025.9312)" class="st25 st2 st18">ТЕРРИТОРИАЛЬНЫХ </text>
	<text transform="matrix(0.99 0 0 1 710.4894 1052.2632)" class="st25 st2 st18">ФИЛИАЛОВ</text>
	<text transform="matrix(0.99 0 0 1 369.5167 990.3257)" class="st21 st2 st19">414</text>
	<text transform="matrix(0.99 0 0 1 705.2941 990.3257)" class="st21 st2 st19">13</text>
</g>
<g id="ast" class="st20">
	<path class="st21" d="M1694.5,28.7h555.3c26.9,0,48.8,21.8,48.8,48.8v217.6c0,26.9-21.8,48.8-48.8,48.8h-555.3
		c-26.9,0-48.8-21.8-48.8-48.8V77.5C1645.7,50.5,1667.5,28.7,1694.5,28.7z"/>
	<path class="st22" d="M1702,43.7h540.3c23.8,0,43.1,19.3,43.1,43.1v197c0,23.8-19.3,43.1-43.1,43.1H1702
		c-23.8,0-43.1-19.3-43.1-43.1v-197C1658.8,63,1678.2,43.7,1702,43.7z"/>
	<path class="st23" d="M1658.8,295.1h626.6l0,0v22.5c0,5.2-4.2,9.4-9.4,9.4h-606c-5.1,1-10-2.2-11.1-7.3c-0.1-0.7-0.2-1.4-0.2-2.1
		V295.1L1658.8,295.1z"/>
	<rect x="1970.3" y="68.1" class="st24" width="5.6" height="217.6"/>
	<polygon class="st21" points="1758.3,372 1743.3,343.8 1773.3,343.8 	"/>
	<text transform="matrix(0.99 0 0 1 1836.9934 319.5001)" class="st21 st15 st16">По состоянию на 01.09.2015</text>
	<text transform="matrix(0.99 0 0 1 1750.7864 212.5157)" class="st25 st2 st18">ПЕРВИЧНЫХ</text>
	<text transform="matrix(0.99 0 0 1 1745.0989 238.8477)" class="st25 st2 st18">ПАРТИЙНЫЙ </text>
	<text transform="matrix(0.99 0 0 1 1733.9934 265.1329)" class="st25 st2 st18">ОРГАНИЗАЦИЙ</text>
	<text transform="matrix(0.99 0 0 1 2004.0754 212.5157)" class="st25 st2 st18">ТЕРРИТОРИАЛЬНЫХ </text>
	<text transform="matrix(0.99 0 0 1 2054.1848 238.8477)" class="st25 st2 st18">ФИЛИАЛОВ</text>
	<text transform="matrix(0.99 0 0 1 1713.2122 176.9102)" class="st21 st2 st19">414</text>
	<text transform="matrix(0.99 0 0 1 2048.9895 176.9102)" class="st21 st2 st19">13</text>
</g>
<g id="pav" class="st20">
	<path class="st21" d="M2126,0h555.3c26.9,0,48.8,21.8,48.8,48.8v217.6c0,26.9-21.8,48.8-48.8,48.8H2126
		c-26.9,0-48.8-21.8-48.8-48.8V48.8C2077.2,21.8,2099,0,2126,0z"/>
	<path class="st22" d="M2133.5,15h540.3c23.8,0,43.1,19.3,43.1,43.1v197c0,23.8-19.3,43.1-43.1,43.1h-540.3
		c-23.8,0-43.1-19.3-43.1-43.1v-197C2090.3,34.3,2109.6,15,2133.5,15z"/>
	<path class="st23" d="M2090.3,266.4h626.6l0,0v22.5c0,5.2-4.2,9.4-9.4,9.4h-606c-5.1,1-10-2.2-11.1-7.3c-0.1-0.7-0.2-1.4-0.2-2.1
		V266.4L2090.3,266.4z"/>
	<rect x="2401.7" y="39.4" class="st24" width="5.6" height="217.6"/>
	<polygon class="st21" points="2189.7,343.3 2174.7,315.2 2204.8,315.2 	"/>
	<text transform="matrix(0.99 0 0 1 2268.4766 290.8255)" class="st21 st15 st16">По состоянию на 01.09.2015</text>
	<text transform="matrix(0.99 0 0 1 2182.2695 183.8411)" class="st25 st2 st18">ПЕРВИЧНЫХ</text>
	<text transform="matrix(0.99 0 0 1 2176.582 210.1732)" class="st25 st2 st18">ПАРТИЙНЫЙ </text>
	<text transform="matrix(0.99 0 0 1 2165.4766 236.4583)" class="st25 st2 st18">ОРГАНИЗАЦИЙ</text>
	<text transform="matrix(0.99 0 0 1 2435.5586 183.8411)" class="st25 st2 st18">ТЕРРИТОРИАЛЬНЫХ </text>
	<text transform="matrix(0.99 0 0 1 2485.668 210.1732)" class="st25 st2 st18">ФИЛИАЛОВ</text>
	<text transform="matrix(0.99 0 0 1 2144.6953 148.2357)" class="st21 st2 st19">414</text>
	<text transform="matrix(0.99 0 0 1 2480.4727 148.2357)" class="st21 st2 st19">13</text>
</g>
<g id="vos" class="st20">
	<path class="st21" d="M2384.3,334.9h555.3c26.9,0,48.8,21.8,48.8,48.8v217.6c0,26.9-21.8,48.8-48.8,48.8h-555.3
		c-26.9,0-48.8-21.8-48.8-48.8V383.7C2335.5,356.7,2357.3,334.9,2384.3,334.9z"/>
	<path class="st22" d="M2391.8,349.9h540.3c23.8,0,43.1,19.3,43.1,43.1v197c0,23.8-19.3,43.1-43.1,43.1h-540.3
		c-23.8,0-43.1-19.3-43.1-43.1v-197C2348.6,369.2,2368,349.9,2391.8,349.9z"/>
	<path class="st23" d="M2348.6,601.3h626.6l0,0v22.5c0,5.2-4.2,9.4-9.4,9.4h-606c-5.1,1-10-2.2-11.1-7.3c-0.1-0.7-0.2-1.4-0.2-2.1
		V601.3L2348.6,601.3z"/>
	<rect x="2660.1" y="374.3" class="st24" width="5.6" height="217.6"/>
	<polygon class="st21" points="2448.1,678.2 2433.1,650.1 2463.1,650.1 	"/>
	<text transform="matrix(0.99 0 0 1 2526.8022 625.7324)" class="st21 st15 st16">По состоянию на 01.09.2015</text>
	<text transform="matrix(0.99 0 0 1 2440.5952 518.748)" class="st25 st2 st18">ПЕРВИЧНЫХ</text>
	<text transform="matrix(0.99 0 0 1 2434.9077 545.0801)" class="st25 st2 st18">ПАРТИЙНЫЙ </text>
	<text transform="matrix(0.99 0 0 1 2423.8022 571.3652)" class="st25 st2 st18">ОРГАНИЗАЦИЙ</text>
	<text transform="matrix(0.99 0 0 1 2693.8843 518.748)" class="st25 st2 st18">ТЕРРИТОРИАЛЬНЫХ </text>
	<text transform="matrix(0.99 0 0 1 2743.9937 545.0801)" class="st25 st2 st18">ФИЛИАЛОВ</text>
	<text transform="matrix(0.99 0 0 1 2403.021 483.1425)" class="st21 st2 st19">414</text>
	<text transform="matrix(0.99 0 0 1 2738.7983 483.1425)" class="st21 st2 st19">13</text>
</g>
<g id="n-kz" class="st20">
	<path class="st21" d="M1575.4,252h555.3c26.9,0,48.8,21.8,48.8,48.8v217.6c0,26.9-21.8,48.8-48.8,48.8h-555.3
		c-26.9,0-48.8-21.8-48.8-48.8V300.8C1526.6,273.9,1548.5,252,1575.4,252z"/>
	<path class="st22" d="M1582.9,267h540.3c23.8,0,43.1,19.3,43.1,43.1v197c0,23.8-19.3,43.1-43.1,43.1h-540.3
		c-23.8,0-43.1-19.3-43.1-43.1v-197C1539.8,286.3,1559.1,267,1582.9,267z"/>
	<path class="st23" d="M1539.8,518.4h626.6l0,0v22.5c0,5.2-4.2,9.4-9.4,9.4h-606c-5.1,1-10-2.2-11.1-7.3c-0.1-0.7-0.2-1.4-0.2-2.1
		V518.4L1539.8,518.4z"/>
	<rect x="1851.2" y="291.4" class="st24" width="5.6" height="217.6"/>
	<polygon class="st21" points="1631.3,215.5 1616.3,253 1646.3,253 	"/>
	<text transform="matrix(0.99 0 0 1 1717.9418 542.8447)" class="st21 st15 st16">По состоянию на 01.09.2015</text>
	<text transform="matrix(0.99 0 0 1 1631.7347 435.8603)" class="st25 st2 st18">ПЕРВИЧНЫХ</text>
	<text transform="matrix(0.99 0 0 1 1626.0472 462.1923)" class="st25 st2 st18">ПАРТИЙНЫЙ </text>
	<text transform="matrix(0.99 0 0 1 1614.9418 488.4775)" class="st25 st2 st18">ОРГАНИЗАЦИЙ</text>
	<text transform="matrix(0.99 0 0 1 1885.0238 435.8603)" class="st25 st2 st18">ТЕРРИТОРИАЛЬНЫХ </text>
	<text transform="matrix(0.99 0 0 1 1935.1332 462.1923)" class="st25 st2 st18">ФИЛИАЛОВ</text>
	<text transform="matrix(0.99 0 0 1 1594.1605 400.2548)" class="st21 st2 st19">414</text>
	<text transform="matrix(0.99 0 0 1 1929.9379 400.2548)" class="st21 st2 st19">13</text>
</g>
<g id="alma" class="st20">
	<path class="st21" d="M2331.3,935.5h555.3c26.9,0,48.8,21.8,48.8,48.8v217.6c0,26.9-21.8,48.8-48.8,48.8h-555.3
		c-26.9,0-48.8-21.8-48.8-48.8V984.2C2282.5,957.3,2304.4,935.5,2331.3,935.5z"/>
	<path class="st22" d="M2338.8,950.5h540.3c23.8,0,43.1,19.3,43.1,43.1v197c0,23.8-19.3,43.1-43.1,43.1h-540.3
		c-23.8,0-43.1-19.3-43.1-43.1v-197C2295.7,969.8,2315,950.5,2338.8,950.5z"/>
	<path class="st23" d="M2295.7,1201.9h626.6l0,0v22.5c0,5.2-4.2,9.4-9.4,9.4h-606c-5.1,1-10-2.2-11.1-7.3c-0.1-0.7-0.2-1.4-0.2-2.1
		V1201.9L2295.7,1201.9z"/>
	<rect x="2607.1" y="974.8" class="st24" width="5.6" height="217.6"/>
	<polygon class="st21" points="2395.1,1278.8 2380.1,1250.6 2410.1,1250.6 	"/>
	<text transform="matrix(0.99 0 0 1 2473.8152 1226.2787)" class="st21 st15 st16">По состоянию на 01.09.2015</text>
	<text transform="matrix(0.99 0 0 1 2387.6082 1119.2943)" class="st25 st2 st18">ПЕРВИЧНЫХ</text>
	<text transform="matrix(0.99 0 0 1 2381.9207 1145.6263)" class="st25 st2 st18">ПАРТИЙНЫЙ </text>
	<text transform="matrix(0.99 0 0 1 2370.8152 1171.9115)" class="st25 st2 st18">ОРГАНИЗАЦИЙ</text>
	<text transform="matrix(0.99 0 0 1 2640.8972 1119.2943)" class="st25 st2 st18">ТЕРРИТОРИАЛЬНЫХ </text>
	<text transform="matrix(0.99 0 0 1 2691.0066 1145.6263)" class="st25 st2 st18">ФИЛИАЛОВ</text>
	<text transform="matrix(0.99 0 0 1 2350.0339 1083.6888)" class="st21 st2 st19">414</text>
	<text transform="matrix(0.99 0 0 1 2685.8113 1083.6888)" class="st21 st2 st19">13</text>
</g>
<g id="jam" class="st20">
	<path class="st21" d="M1873.8,918.5h555.3c26.9,0,48.8,21.8,48.8,48.8v217.6c0,26.9-21.8,48.8-48.8,48.8h-555.3
		c-26.9,0-48.8-21.8-48.8-48.8V967.2C1825,940.3,1846.9,918.5,1873.8,918.5z"/>
	<path class="st22" d="M1881.3,933.5h540.3c23.8,0,43.1,19.3,43.1,43.1v197c0,23.8-19.3,43.1-43.1,43.1h-540.3
		c-23.8,0-43.1-19.3-43.1-43.1v-197C1838.2,952.8,1857.5,933.5,1881.3,933.5z"/>
	<path class="st23" d="M1838.2,1184.9h626.6l0,0v22.5c0,5.2-4.2,9.4-9.4,9.4h-606c-5.1,1-10-2.2-11.1-7.3c-0.1-0.7-0.2-1.4-0.2-2.1
		V1184.9L1838.2,1184.9z"/>
	<rect x="2149.6" y="957.9" class="st24" width="5.6" height="217.6"/>
	<polygon class="st21" points="1937.6,1261.8 1922.6,1233.6 1952.6,1233.6 	"/>
	<text transform="matrix(0.99 0 0 1 2016.3225 1209.2889)" class="st21 st15 st16">По состоянию на 01.09.2015</text>
	<text transform="matrix(0.99 0 0 1 1930.1155 1102.3046)" class="st25 st2 st18">ПЕРВИЧНЫХ</text>
	<text transform="matrix(0.99 0 0 1 1924.428 1128.6366)" class="st25 st2 st18">ПАРТИЙНЫЙ </text>
	<text transform="matrix(0.99 0 0 1 1913.3225 1154.9218)" class="st25 st2 st18">ОРГАНИЗАЦИЙ</text>
	<text transform="matrix(0.99 0 0 1 2183.4045 1102.3046)" class="st25 st2 st18">ТЕРРИТОРИАЛЬНЫХ </text>
	<text transform="matrix(0.99 0 0 1 2233.5139 1128.6366)" class="st25 st2 st18">ФИЛИАЛОВ</text>
	<text transform="matrix(0.99 0 0 1 1892.5413 1066.6991)" class="st21 st2 st19">414</text>
	<text transform="matrix(0.99 0 0 1 2228.3186 1066.6991)" class="st21 st2 st19">13</text>
</g>
<g id="s-kz" class="st20">
	<path class="st21" d="M1592.4,1097.4h555.3c26.9,0,48.8,21.8,48.8,48.8v217.6c0,26.9-21.8,48.8-48.8,48.8h-555.3
		c-26.9,0-48.8-21.8-48.8-48.8v-217.6C1543.6,1119.3,1565.4,1097.4,1592.4,1097.4z"/>
	<path class="st22" d="M1599.9,1112.5h540.3c23.8,0,43.1,19.3,43.1,43.1v197c0,23.8-19.3,43.1-43.1,43.1h-540.3
		c-23.8,0-43.1-19.3-43.1-43.1v-197C1556.7,1131.8,1576,1112.5,1599.9,1112.5z"/>
	<path class="st23" d="M1556.7,1363.8h626.6l0,0v22.5c0,5.2-4.2,9.4-9.4,9.4h-606c-5.1,1-10-2.2-11.1-7.3c-0.1-0.7-0.2-1.4-0.2-2.1
		V1363.8L1556.7,1363.8z"/>
	<rect x="1868.1" y="1136.8" class="st24" width="5.6" height="217.6"/>
	<polygon class="st21" points="1656.2,1440.8 1641.1,1412.6 1671.2,1412.6 	"/>
	<text transform="matrix(0.99 0 0 1 1734.8812 1388.2733)" class="st21 st15 st16">По состоянию на 01.09.2015</text>
	<text transform="matrix(0.99 0 0 1 1648.6742 1281.2889)" class="st25 st2 st18">ПЕРВИЧНЫХ</text>
	<text transform="matrix(0.99 0 0 1 1642.9867 1307.621)" class="st25 st2 st18">ПАРТИЙНЫЙ </text>
	<text transform="matrix(0.99 0 0 1 1631.8812 1333.9061)" class="st25 st2 st18">ОРГАНИЗАЦИЙ</text>
	<text transform="matrix(0.99 0 0 1 1901.9633 1281.2889)" class="st25 st2 st18">ТЕРРИТОРИАЛЬНЫХ </text>
	<text transform="matrix(0.99 0 0 1 1952.0726 1307.621)" class="st25 st2 st18">ФИЛИАЛОВ</text>
	<text transform="matrix(0.99 0 0 1 1611.1 1245.6835)" class="st21 st2 st19">414</text>
	<text transform="matrix(0.99 0 0 1 1946.8773 1245.6835)" class="st21 st2 st19">13</text>
</g>
<g id="kyz" class="st20">
	<path class="st21" d="M1205.9,842.1h555.3c26.9,0,48.8,21.8,48.8,48.8v217.6c0,26.9-21.8,48.8-48.8,48.8h-555.3
		c-26.9,0-48.8-21.8-48.8-48.8V890.9C1157.1,863.9,1178.9,842.1,1205.9,842.1z"/>
	<path class="st22" d="M1213.4,857.1h540.3c23.8,0,43.1,19.3,43.1,43.1v197c0,23.8-19.3,43.1-43.1,43.1h-540.3
		c-23.8,0-43.1-19.3-43.1-43.1v-197C1170.2,876.4,1189.5,857.1,1213.4,857.1z"/>
	<path class="st23" d="M1170.2,1108.5h626.6l0,0v22.5c0,5.2-4.2,9.4-9.4,9.4h-606c-5.1,1-10-2.2-11.1-7.3c-0.1-0.7-0.2-1.4-0.2-2.1
		V1108.5L1170.2,1108.5z"/>
	<rect x="1481.7" y="881.5" class="st24" width="5.6" height="217.6"/>
	<polygon class="st21" points="1269.7,1185.4 1254.7,1157.3 1284.7,1157.3 	"/>
	<text transform="matrix(0.99 0 0 1 1348.3909 1132.9155)" class="st21 st15 st16">По состоянию на 01.09.2015</text>
	<text transform="matrix(0.99 0 0 1 1262.1838 1025.9312)" class="st25 st2 st18">ПЕРВИЧНЫХ</text>
	<text transform="matrix(0.99 0 0 1 1256.4963 1052.2632)" class="st25 st2 st18">ПАРТИЙНЫЙ </text>
	<text transform="matrix(0.99 0 0 1 1245.3909 1078.5483)" class="st25 st2 st18">ОРГАНИЗАЦИЙ</text>
	<text transform="matrix(0.99 0 0 1 1515.4729 1025.9312)" class="st25 st2 st18">ТЕРРИТОРИАЛЬНЫХ </text>
	<text transform="matrix(0.99 0 0 1 1565.5823 1052.2632)" class="st25 st2 st18">ФИЛИАЛОВ</text>
	<text transform="matrix(0.99 0 0 1 1224.6096 990.3257)" class="st21 st2 st19">414</text>
	<text transform="matrix(0.99 0 0 1 1560.387 990.3257)" class="st21 st2 st19">13</text>
</g>
<g id="kos" class="st20">
	<path class="st21" d="M1204,404.4h555.3c26.9,0,48.8,21.8,48.8,48.8v217.6c0,26.9-21.8,48.8-48.8,48.8H1204
		c-26.9,0-48.8-21.8-48.8-48.8V453.2C1155.2,426.3,1177.1,404.4,1204,404.4z"/>
	<path class="st22" d="M1211.5,419.4h540.3c23.8,0,43.1,19.3,43.1,43.1v197c0,23.8-19.3,43.1-43.1,43.1h-540.3
		c-23.8,0-43.1-19.3-43.1-43.1v-197C1168.4,438.7,1187.7,419.4,1211.5,419.4z"/>
	<path class="st23" d="M1168.4,670.8H1795l0,0v22.5c0,5.2-4.2,9.4-9.4,9.4h-606c-5.1,1-10-2.2-11.1-7.3c-0.1-0.7-0.2-1.4-0.2-2.1
		V670.8L1168.4,670.8z"/>
	<rect x="1479.8" y="443.8" class="st24" width="5.6" height="217.6"/>
	<polygon class="st21" points="1267.8,370.6 1252.8,404.4 1282.8,404.4 	"/>
	<text transform="matrix(0.99 0 0 1 1346.5149 695.2415)" class="st21 st15 st16">По состоянию на 01.09.2015</text>
	<text transform="matrix(0.99 0 0 1 1260.3079 588.2571)" class="st25 st2 st18">ПЕРВИЧНЫХ</text>
	<text transform="matrix(0.99 0 0 1 1254.6204 614.5892)" class="st25 st2 st18">ПАРТИЙНЫЙ </text>
	<text transform="matrix(0.99 0 0 1 1243.5149 640.8743)" class="st25 st2 st18">ОРГАНИЗАЦИЙ</text>
	<text transform="matrix(0.99 0 0 1 1513.5969 588.2571)" class="st25 st2 st18">ТЕРРИТОРИАЛЬНЫХ </text>
	<text transform="matrix(0.99 0 0 1 1563.7063 614.5892)" class="st25 st2 st18">ФИЛИАЛОВ</text>
	<text transform="matrix(0.99 0 0 1 1222.7336 552.6517)" class="st21 st2 st19">414</text>
	<text transform="matrix(0.99 0 0 1 1558.511 552.6517)" class="st21 st2 st19">13</text>
</g>
</svg>
