<svg id="Слой_1" data-name="Слой 1" xmlns="http://www.w3.org/2000/svg" viewBox="0 0 3.48 1.83"><defs><style>.cls-1,.cls-5,.cls-6,.cls-8{fill:#fff;}.cls-2{fill:#68bfea;}.cls-3{fill:#639cc5;}.cls-4{fill:#fdfdfe;}.cls-5{fill-rule:evenodd;}.cls-6{font-size:0.11px;}.cls-6,.cls-7,.cls-8{font-family:Open Sans;}.cls-7{font-size:0.12px;fill:#010204;}.cls-7,.cls-8{font-weight:700;}.cls-8{font-size:0.65px;}</style></defs><title>tooltip</title><rect class="cls-1" width="3.48" height="1.68" rx="0.26" ry="0.26"/><rect class="cls-2" x="0.07" y="0.08" width="3.34" height="1.51" rx="0.23" ry="0.23"/><path class="cls-3" d="M0.07,1.42H3.41a0,0,0,0,1,0,0V1.54a0.05,0.05,0,0,1-.05.05H0.13A0.05,0.05,0,0,1,.07,1.54V1.42A0,0,0,0,1,.07,1.42Z"/><rect class="cls-4" x="1.73" y="0.21" width="0.03" height="1.16"/><polygon class="cls-5" points="0.6 1.83 0.52 1.68 0.68 1.68 0.6 1.83"/><text class="cls-6" transform="translate(1.02 1.55) scale(0.99 1)">По состоянию на 01.09.2015</text><text class="cls-7" transform="translate(0.56 0.98) scale(0.99 1)">ПЕРВИЧНЫХ<tspan x="-0.03" y="0.14">ПАРТИЙНЫЙ </tspan><tspan x="-0.09" y="0.28">ОРГАНИЗАЦИЙ</tspan></text><text class="cls-7" transform="translate(1.91 0.98) scale(0.99 1)">ТЕРРИТОРИАЛЬНЫХ <tspan x="0.27" y="0.14">ФИЛИАЛОВ</tspan></text><text class="cls-8" transform="translate(0.36 0.79) scale(0.99 1)">414</text><text class="cls-8" transform="translate(2.15 0.79) scale(0.99 1)">13</text></svg>